<svg width="14" height="16" viewBox="0 0 14 16" fill="none" xmlns="http://www.w3.org/2000/svg">
<path d="M13.3945 9.97112L7.62073 15.7449C7.45605 15.9096 7.23634 16 6.99738 16C6.7631 16 6.54353 15.9096 6.37885 15.7449L0.604926 9.97112C0.263853 9.62992 0.263853 9.0746 0.604926 8.73366L1.12915 8.20917C1.29384 8.04462 1.51354 7.95408 1.74795 7.95408C1.98223 7.95408 2.20948 8.04462 2.37403 8.20917L5.7499 11.5778L5.7499 0.875838C5.7499 0.393497 6.12766 9.53674e-07 6.61 9.53674e-07H7.35146C7.8338 9.53674e-07 8.2498 0.393497 8.2498 0.875838L8.2498 11.6157L11.6448 8.20917C11.8094 8.04462 12.0232 7.95408 12.2576 7.95408C12.492 7.95408 12.7085 8.04462 12.8733 8.20917L13.396 8.73366C13.7372 9.07473 13.7359 9.62992 13.3945 9.97112Z" fill="white"/>
</svg>
