<svg width="17" height="16" viewBox="0 0 17 16" fill="none" xmlns="http://www.w3.org/2000/svg">
<path d="M2.10572 6.02888L7.87951 0.255089C8.0442 0.0904065 8.2639 0 8.50286 0C8.73714 0 8.95672 0.0904065 9.1214 0.255089L14.8953 6.02888C15.2364 6.37008 15.2364 6.9254 14.8953 7.26634L14.3711 7.79083C14.2064 7.95538 13.9867 8.04592 13.7523 8.04592C13.518 8.04592 13.2908 7.95538 13.1262 7.79083L9.75034 4.42224V15.1242C9.75034 15.6065 9.37259 16 8.89024 16H8.14878C7.66644 16 7.25044 15.6065 7.25044 15.1242V4.38426L3.85545 7.79083C3.69089 7.95538 3.47704 8.04592 3.24263 8.04592C3.00823 8.04592 2.79177 7.95538 2.62696 7.79083L2.10429 7.26634C1.76309 6.92527 1.76439 6.37008 2.10572 6.02888Z" fill="white"/>
</svg>
