<svg width="27" height="27" viewBox="0 0 27 27" fill="none" xmlns="http://www.w3.org/2000/svg">
<path d="M16.5264 11.5536C16.1078 13.2277 13.5019 12.3771 12.6918 12.1476L13.4344 9.20441C14.2715 9.44743 16.9584 9.79845 16.5264 11.5536ZM12.3273 13.6597L11.5172 16.9135C12.5163 17.17 15.6082 18.1555 16.0673 16.3194C16.5534 14.4023 13.3264 13.9027 12.3273 13.6597ZM26.5988 16.7649C24.7896 24.0015 17.4715 28.4028 10.2345 26.5936C2.99743 24.7845 -1.40015 17.467 0.40506 10.2305C0.833939 8.51058 1.59746 6.89201 2.65201 5.46721C3.70656 4.04241 5.03149 2.8393 6.55112 1.92658C8.07074 1.01387 9.7553 0.409439 11.5086 0.147812C13.2618 -0.113815 15.0495 -0.0275133 16.7694 0.401789C23.9929 2.21092 28.3946 9.52843 26.5988 16.7649ZM16.4859 8.16484L17.0935 5.73467L15.6082 5.39714L15.0142 7.73281C14.6226 7.6383 14.231 7.54379 13.826 7.46279L14.4201 5.07312L12.9484 4.72209L12.3408 7.13876C12.0167 7.05776 11.6927 6.99025 11.3956 6.90925L9.35684 6.39621L8.95179 7.97582C8.95179 7.97582 10.0589 8.23234 10.0319 8.24584C10.6395 8.39435 10.7475 8.77238 10.7205 9.1099L9.0598 15.7659C8.99229 15.9549 8.77626 16.1979 8.38471 16.1304C8.39821 16.1439 7.30455 15.8604 7.30455 15.8604L6.57545 17.548L8.49272 18.034C8.85727 18.1285 9.20832 18.2231 9.55937 18.3041L8.93828 20.7612L10.4235 21.1393L11.0311 18.6956C11.4361 18.8036 11.8277 18.8981 12.2058 19.0061L11.5982 21.4228L13.0834 21.8008L13.7045 19.3436C16.2023 19.8162 18.1196 19.6271 18.9027 17.3455C19.5778 15.5229 18.9027 14.4428 17.5525 13.7542C18.5247 13.4977 19.2538 12.8902 19.4563 11.5671C19.7263 9.77145 18.3491 8.81288 16.4859 8.16484Z" fill="#FCAA1A"/>
</svg>
