<svg width="19" height="22" viewBox="0 0 19 22" fill="none" xmlns="http://www.w3.org/2000/svg">
<path d="M2.2353 22C1.62059 22 1.09418 21.7844 0.65606 21.3532C0.217943 20.922 -0.0007432 20.4043 1.89753e-06 19.8V5.5C1.89753e-06 5.18833 0.107296 4.9269 0.321884 4.7157C0.536472 4.5045 0.801727 4.39927 1.11765 4.4C1.43432 4.4 1.69994 4.5056 1.91453 4.7168C2.12912 4.928 2.23604 5.18907 2.2353 5.5V19.8H13.4118C13.7284 19.8 13.9941 19.9056 14.2086 20.1168C14.4232 20.328 14.5302 20.5891 14.5294 20.9C14.5294 21.2117 14.4221 21.4731 14.2075 21.6843C13.9929 21.8955 13.7277 22.0007 13.4118 22H2.2353ZM6.70588 17.6C6.09118 17.6 5.56477 17.3844 5.12665 16.9532C4.68853 16.522 4.46984 16.0043 4.47059 15.4V2.2C4.47059 1.595 4.68965 1.0769 5.12777 0.645702C5.56588 0.214502 6.09192 -0.000731466 6.70588 1.86757e-06H16.7647C17.3794 1.86757e-06 17.9058 0.215602 18.3439 0.646802C18.7821 1.078 19.0007 1.59573 19 2.2V15.4C19 16.005 18.7809 16.5231 18.3428 16.9543C17.9047 17.3855 17.3787 17.6007 16.7647 17.6H6.70588ZM6.70588 15.4H16.7647V2.2H6.70588V15.4Z" fill="white"/>
</svg>
