<svg width="24" height="6" viewBox="0 0 24 6" fill="none" xmlns="http://www.w3.org/2000/svg">
<path d="M24 3C24 3.825 23.706 4.5315 23.118 5.1195C22.53 5.7075 21.824 6.001 21 6C20.175 6 19.4685 5.706 18.8805 5.118C18.2925 4.53 17.999 3.824 18 3C18 2.175 18.294 1.4685 18.882 0.880501C19.47 0.292502 20.176 -0.00099802 21 1.90735e-06C21.825 1.90735e-06 22.5315 0.294003 23.1195 0.882002C23.7075 1.47 24.001 2.176 24 3ZM15 3C15 3.825 14.706 4.5315 14.118 5.1195C13.53 5.7075 12.824 6.001 12 6C11.175 6 10.4685 5.706 9.8805 5.118C9.2925 4.53 8.999 3.824 9 3C9 2.175 9.294 1.4685 9.882 0.880501C10.47 0.292502 11.176 -0.00099802 12 1.90735e-06C12.825 1.90735e-06 13.5315 0.294003 14.1195 0.882002C14.7075 1.47 15.001 2.176 15 3ZM6 3C6 3.825 5.706 4.5315 5.118 5.1195C4.53 5.7075 3.824 6.001 3 6C2.175 6 1.4685 5.706 0.880502 5.118C0.292502 4.53 -0.000997453 3.824 2.54669e-06 3C2.54669e-06 2.175 0.294002 1.4685 0.882002 0.880501C1.47 0.292502 2.176 -0.00099802 3 1.90735e-06C3.825 1.90735e-06 4.5315 0.294003 5.1195 0.882002C5.7075 1.47 6.001 2.176 6 3Z" fill="white"/>
</svg>
