<svg width="24" height="20" viewBox="0 0 24 20" fill="none" xmlns="http://www.w3.org/2000/svg">
<path d="M2.4 20C1.74 20 1.1748 19.755 0.704402 19.265C0.234002 18.775 -0.000797963 18.1867 2.03735e-06 17.5V2.5C2.03735e-06 1.8125 0.235202 1.22375 0.705602 0.733752C1.176 0.243752 1.7408 -0.000831211 2.4 2.12224e-06H21.6C22.26 2.12224e-06 22.8252 0.245002 23.2956 0.735002C23.766 1.225 24.0008 1.81334 24 2.5V17.5C24 18.1875 23.7648 18.7762 23.2944 19.2662C22.824 19.7562 22.2592 20.0008 21.6 20H2.4ZM12 11.25L2.4 5V17.5H21.6V5L12 11.25ZM12 8.75L21.6 2.5H2.4L12 8.75ZM2.4 5V2.5V17.5V5Z" fill="white"/>
</svg>
