<svg width="28" height="28" viewBox="0 0 28 28" fill="none" xmlns="http://www.w3.org/2000/svg">
<path d="M27.9345 10.524L27.9348 10.5239L27.9261 10.4522C27.926 10.451 27.9259 10.45 27.9257 10.4488C27.9256 10.4477 27.9255 10.4468 27.9253 10.4458L27.8928 10.1759C27.8863 10.1217 27.8789 10.0599 27.8704 9.9895L27.8636 9.93341L27.8497 9.93511C27.5082 7.9927 26.57 6.14933 25.1168 4.57536C23.6705 3.00895 21.7915 1.77217 19.6829 0.998733C17.8762 0.336059 15.9593 0 13.9856 0C11.3209 0 8.73298 0.626699 6.50172 1.8123C2.19905 4.09842 -0.338522 8.30052 0.0365339 12.5177C0.230672 14.7 1.0856 16.7772 2.50896 18.5251C3.84866 20.1703 5.66096 21.4979 7.74983 22.3645C9.03419 22.8972 10.3041 23.1483 11.6487 23.4141L11.8061 23.4452C12.1764 23.5185 12.2759 23.6192 12.3016 23.659C12.3491 23.7331 12.3242 23.8789 12.3052 23.9593C12.2876 24.0334 12.2695 24.1074 12.2513 24.1814C12.107 24.7701 11.9577 25.379 12.075 26.0502C12.2098 26.8219 12.6917 27.2645 13.397 27.2645H13.3972C14.1559 27.2645 15.0194 26.7556 15.5908 26.4189L15.6671 26.374C17.0302 25.5735 18.3144 24.6705 19.2808 23.9733C21.3957 22.4475 23.7927 20.718 25.5898 18.4806C27.3995 16.2271 28.2519 13.3314 27.9345 10.524ZM8.71948 14.7934H6.3039C5.93885 14.7934 5.64292 14.4974 5.64292 14.1324V9.06215C5.64292 8.69711 5.93885 8.40118 6.3039 8.40118C6.66894 8.40118 6.96487 8.69711 6.96487 9.06215V13.4714H8.71938C9.08443 13.4714 9.38036 13.7673 9.38036 14.1324C9.38045 14.4974 9.08452 14.7934 8.71948 14.7934ZM11.2394 14.1145C11.2394 14.4795 10.9435 14.7754 10.5784 14.7754C10.2134 14.7754 9.91745 14.4795 9.91745 14.1145V9.04421C9.91745 8.67917 10.2134 8.38324 10.5784 8.38324C10.9435 8.38324 11.2394 8.67917 11.2394 9.04421V14.1145ZM17.214 14.1145C17.214 14.4008 17.0296 14.6547 16.7572 14.7431C16.69 14.7649 16.6211 14.7755 16.5532 14.7755C16.3455 14.7755 16.145 14.6774 16.0182 14.5028L13.638 11.2247V14.1145C13.638 14.4796 13.3421 14.7755 12.977 14.7755C12.612 14.7755 12.316 14.4796 12.316 14.1145V9.18934C12.316 8.90295 12.5004 8.64914 12.7729 8.56066C13.0454 8.47228 13.3437 8.56916 13.5119 8.80097L15.8921 12.0791V9.04421C15.8921 8.67917 16.188 8.38324 16.5531 8.38324C16.9181 8.38324 17.214 8.67917 17.214 9.04421V14.1145ZM22.0304 14.6714H18.759C18.394 14.6714 18.098 14.3754 18.098 14.0104V11.4754V8.94016C18.098 8.57511 18.394 8.27918 18.759 8.27918H21.9289C22.2939 8.27918 22.5898 8.57511 22.5898 8.94016C22.5898 9.3052 22.2939 9.60113 21.9289 9.60113H19.42V10.8144H21.456C21.821 10.8144 22.117 11.1103 22.117 11.4754C22.117 11.8404 21.821 12.1363 21.456 12.1363H19.42V13.3494H22.0304C22.3954 13.3494 22.6914 13.6454 22.6914 14.0104C22.6914 14.3754 22.3954 14.6714 22.0304 14.6714Z" fill="white"/>
</svg>
