<svg width="26" height="26" viewBox="0 0 26 26" fill="none" xmlns="http://www.w3.org/2000/svg">
<path d="M13 0C20.1799 0 26 5.8201 26 13C26 20.1799 20.1799 26 13 26C10.7026 26.0037 8.44567 25.3957 6.46101 24.2385L0.00521828 26L1.76282 19.5416C0.604639 17.5563 -0.00381989 15.2984 1.80443e-05 13C1.80443e-05 5.8201 5.82012 0 13 0ZM8.56961 6.89L8.30961 6.9004C8.14129 6.91065 7.97679 6.95487 7.82601 7.0304C7.68499 7.11025 7.55626 7.21009 7.44381 7.3268C7.28781 7.4737 7.19941 7.60109 7.10451 7.72459C6.62367 8.34977 6.36478 9.1173 6.36871 9.90599C6.37131 10.543 6.53771 11.1631 6.79771 11.7429C7.32941 12.9155 8.20431 14.157 9.35871 15.3075C9.63691 15.5844 9.90991 15.8626 10.2037 16.1213C11.6381 17.3842 13.3474 18.2949 15.1957 18.7811L15.9341 18.8942C16.1746 18.9072 16.4151 18.889 16.6569 18.8773C17.0355 18.8577 17.4052 18.7552 17.7398 18.577C17.91 18.4893 18.0762 18.3939 18.2377 18.291C18.2377 18.291 18.2936 18.2546 18.4002 18.174C18.5757 18.044 18.6836 17.9517 18.8292 17.7996C18.9371 17.6878 19.0307 17.5565 19.1022 17.407C19.2036 17.1951 19.305 16.7908 19.3466 16.4541C19.3778 16.1967 19.3687 16.0563 19.3648 15.9692C19.3596 15.8301 19.2439 15.6858 19.1178 15.6247L18.3612 15.2854C18.3612 15.2854 17.2302 14.7927 16.5386 14.4781C16.4662 14.4465 16.3887 14.4284 16.3098 14.4248C16.2209 14.4157 16.131 14.4257 16.0462 14.4541C15.9615 14.4826 15.8838 14.5289 15.8184 14.5899C15.8119 14.5873 15.7248 14.6614 14.7849 15.8002C14.731 15.8727 14.6567 15.9275 14.5715 15.9576C14.4863 15.9877 14.394 15.9917 14.3065 15.9692C14.2218 15.9465 14.1388 15.9178 14.0582 15.8834C13.897 15.8158 13.8411 15.7898 13.7306 15.743C12.9845 15.4174 12.2937 14.9775 11.6831 14.4391C11.5193 14.2961 11.3672 14.1401 11.2112 13.9893C10.6998 13.4995 10.2541 12.9454 9.88521 12.3409L9.80851 12.2174C9.75342 12.1344 9.70888 12.0449 9.67591 11.9509C9.62651 11.7598 9.75521 11.6064 9.75521 11.6064C9.75521 11.6064 10.0711 11.2606 10.218 11.0734C10.361 10.8914 10.4819 10.7146 10.5599 10.5885C10.7133 10.3415 10.7614 10.088 10.6808 9.89169C10.3168 9.00249 9.93981 8.11719 9.55241 7.23839C9.47571 7.0642 9.24821 6.93939 9.04151 6.91469C8.97131 6.9069 8.90111 6.8991 8.83091 6.8939C8.65633 6.88522 8.48139 6.88696 8.30701 6.8991L8.56831 6.8887L8.56961 6.89Z" fill="white"/>
</svg>
