<svg width="24" height="24" viewBox="0 0 24 24" fill="none" xmlns="http://www.w3.org/2000/svg">
<path d="M21.3333 13.3333V20C21.3333 20.7333 20.7333 21.3333 20 21.3333H4C3.26667 21.3333 2.66667 20.7333 2.66667 20V13.3333C2.66667 12.6 2.06667 12 1.33333 12C0.6 12 0 12.6 0 13.3333V21.3333C0 22.8 1.2 24 2.66667 24H21.3333C22.8 24 24 22.8 24 21.3333V13.3333C24 12.6 23.4 12 22.6667 12C21.9333 12 21.3333 12.6 21.3333 13.3333ZM13.3333 12.8933L15.84 10.3867C15.9634 10.2632 16.11 10.1653 16.2713 10.0985C16.4326 10.0317 16.6054 9.99731 16.78 9.99731C16.9546 9.99731 17.1274 10.0317 17.2887 10.0985C17.45 10.1653 17.5966 10.2632 17.72 10.3867C17.8434 10.5101 17.9414 10.6567 18.0082 10.8179C18.075 10.9792 18.1094 11.1521 18.1094 11.3267C18.1094 11.5012 18.075 11.6741 18.0082 11.8354C17.9414 11.9967 17.8434 12.1432 17.72 12.2667L12.9333 17.0533C12.81 17.1769 12.6635 17.275 12.5022 17.3419C12.3409 17.4088 12.168 17.4433 11.9933 17.4433C11.8187 17.4433 11.6458 17.4088 11.4845 17.3419C11.3232 17.275 11.1767 17.1769 11.0533 17.0533L6.26667 12.2667C6.01736 12.0174 5.87731 11.6792 5.87731 11.3267C5.87731 10.9741 6.01736 10.636 6.26667 10.3867C6.51597 10.1374 6.8541 9.99731 7.20667 9.99731C7.55924 9.99731 7.89736 10.1374 8.14667 10.3867L10.6667 12.8933V1.33333C10.6667 0.6 11.2667 0 12 0C12.7333 0 13.3333 0.6 13.3333 1.33333V12.8933Z" fill="white"/>
</svg>
