<svg width="21" height="21" viewBox="0 0 21 21" fill="none" xmlns="http://www.w3.org/2000/svg">
<path d="M10.0281 20.7192C15.5425 20.7192 20.0125 16.2422 20.0125 10.7192C20.0125 10.2562 19.3196 10.1792 19.0809 10.5762C18.572 11.4206 17.8779 12.1378 17.0511 12.6737C16.2244 13.2096 15.2868 13.55 14.3092 13.6691C13.3317 13.7883 12.3399 13.6831 11.409 13.3615C10.4781 13.0399 9.6324 12.5104 8.93608 11.813C8.23976 11.1155 7.71103 10.2686 7.38994 9.33619C7.06885 8.40381 6.96381 7.41047 7.08279 6.43141C7.20177 5.45235 7.54165 4.51324 8.07668 3.68522C8.6117 2.85721 9.32785 2.16199 10.1709 1.65224C10.5673 1.41224 10.4904 0.719238 10.0281 0.719238C4.51371 0.719238 0.0437012 5.19624 0.0437012 10.7192C0.0437012 16.2422 4.51371 20.7192 10.0281 20.7192Z" fill="white"/>
</svg>
