<svg width="15" height="14" viewBox="0 0 15 14" fill="none" xmlns="http://www.w3.org/2000/svg">
<path d="M8.74684 8.9389L5.82683 5.79624L1.93371 9.98621L3.39406 11.5572C3.78123 11.9737 4.30627 12.2077 4.85372 12.2077C5.40117 12.2077 5.92622 11.9737 6.31338 11.5572L8.74684 8.9389ZM7.75308 12.103H9.62222C9.80474 12.103 9.97979 12.1811 10.1088 12.32C10.2379 12.4589 10.3104 12.6473 10.3104 12.8437C10.3104 13.0402 10.2379 13.2285 10.1088 13.3674C9.97979 13.5064 9.80474 13.5844 9.62222 13.5844H2.05208C1.8776 13.5842 1.7097 13.5127 1.58233 13.3844C1.45496 13.2561 1.37764 13.0804 1.36601 12.8931C1.35438 12.7057 1.40931 12.5206 1.51969 12.3752C1.63006 12.2297 1.78764 12.1348 1.96055 12.1097L0.960605 11.0335C0.702572 10.7557 0.557617 10.379 0.557617 9.98621C0.557617 9.59341 0.702572 9.21669 0.960605 8.9389L8.74684 0.558961C9.00495 0.281252 9.35497 0.125244 9.71994 0.125244C10.0849 0.125244 10.4349 0.281252 10.6931 0.558961L13.6137 3.70162C13.8718 3.97942 14.0167 4.35613 14.0167 4.74893C14.0167 5.14173 13.8718 5.51845 13.6137 5.79624L7.75308 12.103Z" fill="#80E34B" fill-opacity="0.5"/>
</svg>
