<svg width="21" height="24" viewBox="0 0 21 24" fill="none" xmlns="http://www.w3.org/2000/svg">
<path opacity="0.6" d="M2.47059 24C1.79118 24 1.20935 23.7648 0.725119 23.2944C0.240884 22.824 -0.000821432 22.2592 2.09727e-06 21.6V6C2.09727e-06 5.66 0.11859 5.3748 0.355767 5.1444C0.592943 4.914 0.88612 4.7992 1.2353 4.8C1.5853 4.8 1.87888 4.9152 2.11606 5.1456C2.35324 5.376 2.47141 5.6608 2.47059 6V21.6H14.8235C15.1735 21.6 15.4671 21.7152 15.7043 21.9456C15.9415 22.176 16.0596 22.4608 16.0588 22.8C16.0588 23.14 15.9402 23.4252 15.7031 23.6556C15.4659 23.886 15.1727 24.0008 14.8235 24H2.47059ZM7.41177 19.2C6.73235 19.2 6.15053 18.9648 5.6663 18.4944C5.18206 18.024 4.94035 17.4592 4.94118 16.8V2.4C4.94118 1.74 5.1833 1.1748 5.66753 0.704402C6.15177 0.234002 6.73318 -0.000797962 7.41177 2.03735e-06H18.5294C19.2088 2.03735e-06 19.7906 0.235202 20.2749 0.705602C20.7591 1.176 21.0008 1.7408 21 2.4V16.8C21 17.46 20.7579 18.0252 20.2736 18.4956C19.7894 18.966 19.208 19.2008 18.5294 19.2H7.41177ZM7.41177 16.8H18.5294V2.4H7.41177V16.8Z" fill="white"/>
</svg>
