<svg width="8" height="10" viewBox="0 0 8 10" fill="none" xmlns="http://www.w3.org/2000/svg">
<path d="M7.07854 3.85572C7.06037 3.82365 7.03402 3.79698 7.00218 3.77843C6.97034 3.75987 6.93414 3.75009 6.89729 3.75009H4.16812L4.62567 0.254103C4.63058 0.207314 4.6196 0.160235 4.5945 0.120445C4.5694 0.0806552 4.53164 0.05047 4.4873 0.0347495C4.44296 0.019029 4.39462 0.0186881 4.35006 0.0337816C4.30551 0.0488751 4.26732 0.0785248 4.24166 0.117957L0.922706 5.93264C0.903297 5.96421 0.89266 6.00038 0.891891 6.03743C0.891121 6.07448 0.900247 6.11106 0.918328 6.14341C0.936409 6.17576 0.96279 6.20269 0.994751 6.22145C1.02671 6.2402 1.0631 6.25009 1.10015 6.25009H3.78854L3.42593 9.75134C3.42237 9.79797 3.4345 9.84445 3.4604 9.88338C3.4863 9.92232 3.52448 9.95148 3.56886 9.96621C3.61324 9.98095 3.66127 9.98042 3.70532 9.96471C3.74936 9.949 3.78689 9.91901 3.81192 9.87952L7.07604 4.06546C7.09497 4.03384 7.10517 3.99777 7.10561 3.96092C7.10605 3.92408 7.09671 3.88777 7.07854 3.85572Z" fill="#FF595E"/>
</svg>
