<svg width="15" height="15" viewBox="0 0 15 15" fill="none" xmlns="http://www.w3.org/2000/svg">
<path fill-rule="evenodd" clip-rule="evenodd" d="M10.875 1.5C10.4608 1.5 10.125 1.16421 10.125 0.75C10.125 0.33579 10.4608 0 10.875 0H14.25C14.6642 0 15 0.33579 15 0.75V4.125C15 4.53921 14.6642 4.875 14.25 4.875C13.8358 4.875 13.5 4.53921 13.5 4.125V2.56066L9.53032 6.53032C9.23745 6.8232 8.76255 6.8232 8.46968 6.53032C8.1768 6.23745 8.1768 5.76256 8.46968 5.46967L12.4394 1.5H10.875ZM6.53032 8.46968C6.8232 8.76255 6.8232 9.23745 6.53032 9.53032L2.56066 13.5H4.125C4.53921 13.5 4.875 13.8358 4.875 14.25C4.875 14.6642 4.53921 15 4.125 15H0.75C0.551085 15 0.360323 14.9209 0.219668 14.7803C0.0790201 14.6397 0 14.4489 0 14.25V10.875C0 10.4608 0.33579 10.125 0.75 10.125C1.16422 10.125 1.5 10.4608 1.5 10.875V12.4394L5.46967 8.46968C5.76256 8.1768 6.23745 8.1768 6.53032 8.46968Z" fill="#ACACB8"/>
</svg>
