<svg width="16" height="16" viewBox="0 0 16 16" fill="none" xmlns="http://www.w3.org/2000/svg">
<path fill-rule="evenodd" clip-rule="evenodd" d="M7.25 9.5C7.25 9.086 6.914 8.75 6.5 8.75H1.25C0.836 8.75 0.5 9.086 0.5 9.5V14.75C0.5 15.164 0.836 15.5 1.25 15.5H6.5C6.914 15.5 7.25 15.164 7.25 14.75V9.5ZM15.5 9.5C15.5 9.086 15.164 8.75 14.75 8.75H9.5C9.086 8.75 8.75 9.086 8.75 9.5V14.75C8.75 15.164 9.086 15.5 9.5 15.5H14.75C15.164 15.5 15.5 15.164 15.5 14.75V9.5ZM15.5 1.25C15.5 0.836 15.164 0.5 14.75 0.5H9.5C9.086 0.5 8.75 0.836 8.75 1.25V6.5C8.75 6.914 9.086 7.25 9.5 7.25H14.75C15.164 7.25 15.5 6.914 15.5 6.5V1.25ZM7.25 1.25C7.25 0.836 6.914 0.5 6.5 0.5H1.25C0.836 0.5 0.5 0.836 0.5 1.25V6.5C0.5 6.914 0.836 7.25 1.25 7.25H6.5C6.914 7.25 7.25 6.914 7.25 6.5V1.25Z" fill="#ACACB8"/>
</svg>
