<svg width="10" height="7" viewBox="0 0 10 7" fill="none" xmlns="http://www.w3.org/2000/svg">
<path d="M5 0C2.72727 0 0.786364 1.45133 0 3.5C0.786364 5.54867 2.72727 7 5 7C7.27273 7 9.21364 5.54867 10 3.5C9.21364 1.45133 7.27273 0 5 0ZM5 5.83333C3.74545 5.83333 2.72727 4.788 2.72727 3.5C2.72727 2.212 3.74545 1.16667 5 1.16667C6.25455 1.16667 7.27273 2.212 7.27273 3.5C7.27273 4.788 6.25455 5.83333 5 5.83333ZM5 2.1C4.24545 2.1 3.63636 2.72533 3.63636 3.5C3.63636 4.27467 4.24545 4.9 5 4.9C5.75455 4.9 6.36364 4.27467 6.36364 3.5C6.36364 2.72533 5.75455 2.1 5 2.1Z" fill="#AFAFAF"/>
</svg>
