<svg width="16" height="16" viewBox="0 0 16 16" fill="none" xmlns="http://www.w3.org/2000/svg">
<g clip-path="url(#clip0_263_4363)">
<path d="M7.99998 1.33325C4.32387 1.33325 1.33331 4.32381 1.33331 7.99992C1.33331 11.6761 4.32387 14.6666 7.99998 14.6666C11.6761 14.6666 14.6666 11.6761 14.6666 7.99992C14.6666 4.32381 11.6761 1.33325 7.99998 1.33325ZM9.47665 11.4911C9.10945 11.6355 7.83665 12.2433 7.10331 11.5971C6.88445 11.4049 6.77551 11.1611 6.77551 10.8649C6.77551 10.3105 6.95778 9.82712 7.28611 8.66659C7.34385 8.44712 7.41445 8.16272 7.41445 7.93712C7.41445 7.54772 7.26665 7.44439 6.86611 7.44439C6.67051 7.44439 6.45387 7.51379 6.25776 7.58712L6.36609 7.14325C6.80331 6.96545 7.35218 6.74879 7.82218 6.74879C8.52718 6.74879 9.04611 7.10045 9.04611 7.76939C9.04611 7.96212 9.01278 8.29992 8.94278 8.53325L8.53718 9.96772C8.45331 10.2577 8.30165 10.8971 8.53665 11.0866C8.76778 11.2738 9.31498 11.1744 9.58498 11.0471L9.47665 11.4911ZM8.80665 5.7777C8.34665 5.7777 7.97331 5.40437 7.97331 4.94437C7.97331 4.48437 8.34665 4.11103 8.80665 4.11103C9.26665 4.11103 9.63998 4.48437 9.63998 4.94437C9.63998 5.40437 9.26665 5.7777 8.80665 5.7777Z" fill="#ACACB8"/>
</g>
<defs>
<clipPath id="clip0_263_4363">
<rect width="16" height="16" fill="white"/>
</clipPath>
</defs>
</svg>
