<svg width="21" height="20" viewBox="0 0 21 20" fill="none" xmlns="http://www.w3.org/2000/svg">
<path d="M10.0984 0C8.12368 0 6.1933 0.58649 4.55138 1.6853C2.90945 2.78412 1.62973 4.3459 0.874035 6.17316C0.11834 8.00042 -0.0793845 10.0111 0.305865 11.9509C0.691115 13.8907 1.64204 15.6725 3.03838 17.0711C4.43472 18.4696 6.21377 19.422 8.15055 19.8078C10.0873 20.1937 12.0949 19.9957 13.9193 19.2388C15.7437 18.4819 17.303 17.2002 18.4001 15.5557C19.4972 13.9112 20.0828 11.9778 20.0828 10C20.08 7.34869 19.0272 4.80678 17.1553 2.93202C15.2835 1.05727 12.7456 0.00279983 10.0984 0ZM18.5112 9.23077H14.6874C14.552 6.49423 13.7014 3.89711 12.2758 1.82692C13.9455 2.2759 15.438 3.226 16.5527 4.54956C17.6673 5.87312 18.3508 7.5067 18.5112 9.23077ZM10.0984 18.451C8.30026 16.5019 7.20966 13.7394 7.04837 10.7692H13.1484C12.9872 13.7375 11.8966 16.5019 10.0984 18.451ZM7.04837 9.23077C7.20966 6.2625 8.29642 3.49808 10.0984 1.54904C11.8966 3.49808 12.9872 6.26058 13.1484 9.23077H7.04837ZM7.92104 1.82692C6.49539 3.89711 5.64479 6.49423 5.50943 9.23077H1.6856C1.84601 7.5067 2.52948 5.87312 3.64417 4.54956C4.75885 3.226 6.25134 2.2759 7.92104 1.82692ZM1.6856 10.7692H5.50943C5.64479 13.5058 6.49539 16.1029 7.92104 18.1731C6.25134 17.7241 4.75885 16.774 3.64417 15.4504C2.52948 14.1269 1.84601 12.4933 1.6856 10.7692ZM12.2758 18.1731C13.7014 16.1 14.552 13.5029 14.6874 10.7692H18.5112C18.3508 12.4933 17.6673 14.1269 16.5527 15.4504C15.438 16.774 13.9455 17.7241 12.2758 18.1731Z" fill="white"/>
</svg>
