<svg width="14" height="14" viewBox="0 0 14 14" fill="none" xmlns="http://www.w3.org/2000/svg">
<path opacity="0.8" d="M8.58082 8.81365L5.66081 5.67099L1.7677 9.86096L3.22804 11.4319C3.61521 11.8485 4.14025 12.0825 4.68771 12.0825C5.23516 12.0825 5.7602 11.8485 6.14737 11.4319L8.58082 8.81365ZM7.58707 11.9778H9.4562C9.63873 11.9778 9.81377 12.0558 9.94283 12.1947C10.0719 12.3336 10.1444 12.522 10.1444 12.7185C10.1444 12.9149 10.0719 13.1033 9.94283 13.2422C9.81377 13.3811 9.63873 13.4591 9.4562 13.4591H1.88607C1.71159 13.459 1.54368 13.3875 1.41631 13.2591C1.28894 13.1308 1.21162 12.9552 1.19999 12.7678C1.18836 12.5805 1.24329 12.3953 1.35367 12.2499C1.46405 12.1045 1.62163 12.0096 1.79454 11.9845L0.79459 10.9083C0.536557 10.6305 0.391602 10.2538 0.391602 9.86096C0.391602 9.46816 0.536557 9.09144 0.79459 8.81365L8.58082 0.433716C8.83893 0.156008 9.18896 0 9.55393 0C9.9189 0 10.2689 0.156008 10.527 0.433716L13.4477 3.57638C13.7058 3.85417 13.8507 4.23089 13.8507 4.62368C13.8507 5.01648 13.7058 5.3932 13.4477 5.67099L7.58707 11.9778Z" fill="#80E34B"/>
</svg>
