<svg width="8" height="9" viewBox="0 0 8 9" fill="none" xmlns="http://www.w3.org/2000/svg">
<path opacity="0.6" d="M8 3.1499C8 3.23831 7.96488 3.32309 7.90237 3.3856C7.83986 3.44812 7.75507 3.48324 7.66667 3.48324C7.57826 3.48324 7.49348 3.44812 7.43096 3.3856C7.36845 3.32309 7.33333 3.23831 7.33333 3.1499V1.28824L4.56958 4.0524C4.50704 4.11495 4.4222 4.15009 4.33375 4.15009C4.2453 4.15009 4.16046 4.11495 4.09792 4.0524C4.03537 3.98986 4.00023 3.90502 4.00023 3.81657C4.00023 3.72811 4.03537 3.64328 4.09792 3.58074L6.86167 0.816569H5C4.91159 0.816569 4.82681 0.78145 4.7643 0.718938C4.70179 0.656426 4.66667 0.571641 4.66667 0.483236C4.66667 0.39483 4.70179 0.310046 4.7643 0.247533C4.82681 0.185021 4.91159 0.149902 5 0.149902H7.66667C7.75507 0.149902 7.83986 0.185021 7.90237 0.247533C7.96488 0.310046 8 0.39483 8 0.483236V3.1499ZM6.33333 4.1499C6.24493 4.1499 6.16014 4.18502 6.09763 4.24753C6.03512 4.31005 6 4.39483 6 4.48324V7.48324H0.666667V2.1499H3.66667C3.75507 2.1499 3.83986 2.11478 3.90237 2.05227C3.96488 1.98976 4 1.90497 4 1.81657C4 1.72816 3.96488 1.64338 3.90237 1.58087C3.83986 1.51835 3.75507 1.48324 3.66667 1.48324H0.666667C0.489856 1.48324 0.320286 1.55347 0.195262 1.6785C0.0702379 1.80352 0 1.97309 0 2.1499V7.48324C0 7.66005 0.0702379 7.82962 0.195262 7.95464C0.320286 8.07966 0.489856 8.1499 0.666667 8.1499H6C6.17681 8.1499 6.34638 8.07966 6.4714 7.95464C6.59643 7.82962 6.66667 7.66005 6.66667 7.48324V4.48324C6.66667 4.39483 6.63155 4.31005 6.56904 4.24753C6.50652 4.18502 6.42174 4.1499 6.33333 4.1499Z" fill="white"/>
</svg>
