<svg width="195" height="52" viewBox="0 0 195 52" fill="none" xmlns="http://www.w3.org/2000/svg">
<path d="M34.3076 32.0401C34.3076 32.7352 34.1707 33.4235 33.9047 34.0657C33.6387 34.7079 33.2488 35.2914 32.7573 35.7829C32.2658 36.2744 31.6823 36.6643 31.0401 36.9303C30.3979 37.1963 29.7096 37.3332 29.0145 37.3332C28.3194 37.3332 27.6311 37.1963 26.9889 36.9303C26.3467 36.6643 25.7632 36.2744 25.2717 35.7829C24.7802 35.2914 24.3903 34.7079 24.1243 34.0657C23.8583 33.4235 23.7214 32.7352 23.7214 32.0401C23.72 31.8601 23.7292 31.6803 23.7488 31.5014C23.8275 32.0545 24.113 32.5572 24.5478 32.9081C24.9825 33.259 25.5342 33.4319 26.0915 33.3921C26.6487 33.3523 27.1701 33.1026 27.5506 32.6935C27.931 32.2843 28.1421 31.7461 28.1414 31.1874C28.1402 30.7199 27.9886 30.2652 27.7091 29.8905C23.9708 29.9516 20.3112 30.9738 17.0823 32.8587C18.4909 34.6848 20.2995 36.1635 22.3691 37.1811C24.4387 38.1986 26.7142 38.7279 29.0204 38.7283C31.3266 38.7287 33.6022 38.2001 35.6722 37.1832C37.7421 36.1663 39.5513 34.6882 40.9604 32.8626C38.8336 31.558 36.4705 30.6852 34.0063 30.2941C34.2046 30.8549 34.3065 31.4453 34.3076 32.0401ZM36.4735 27.3388C34.2042 26.0397 31.6348 25.3562 29.0199 25.3563C26.4051 25.3563 23.8357 26.0398 21.5665 27.3391C26.4643 26.1499 31.5756 26.1498 36.4735 27.3388ZM57.8611 46.742C57.7885 46.5237 57.6937 46.3134 57.5782 46.1144C57.5782 46.1144 47.8399 29.2636 47.7697 29.1547L47.6577 28.9733C47.5712 28.827 47.4829 28.6829 47.3899 28.5422C47.3682 28.5089 47.3462 28.4769 47.3243 28.4437L47.1335 28.1549C47.111 28.1198 47.072 28.0622 47.0482 28.0287L46.9655 27.9167C46.2806 26.9351 45.517 26.0109 44.6823 25.1532C44.7735 24.4201 44.6225 23.6773 44.2522 23.0381L31.9653 1.75882C31.6667 1.24166 31.2373 0.812186 30.7201 0.513565C30.203 0.214943 29.6164 0.0577007 29.0192 0.0576172C28.422 0.0575338 27.8354 0.214606 27.3181 0.513083C26.8009 0.81156 26.3713 1.24092 26.0726 1.758L10.0973 29.4195C10.0754 29.4546 10.0545 29.4887 10.0345 29.5238L9.61979 30.2491C9.46647 30.8349 9.15895 31.3689 8.72926 31.7956L0.456744 46.1144C0.157746 46.6319 0.000220828 47.219 2.32008e-07 47.8166C-0.000220364 48.4143 0.156872 49.0015 0.455487 49.5192C0.754102 50.0369 1.18373 50.4669 1.70118 50.766C2.21863 51.0651 2.80568 51.2226 3.40335 51.223H6.28076C6.84053 51.223 7.39169 51.0851 7.88538 50.8212C8.6324 50.4217 9.4222 50.0295 10.3185 49.6145C10.4448 49.5528 10.5691 49.4941 10.7 49.443C10.7505 49.4227 10.8016 49.4021 10.8521 49.3793C12.3272 48.718 13.8387 48.1411 15.3794 47.6515C17.8832 46.8541 20.4537 46.2835 23.0597 45.9464C23.0992 45.9426 23.1393 45.9379 23.1791 45.9321C25.1147 45.6722 27.0655 45.5431 29.0185 45.5458C29.1894 45.5458 29.3593 45.5392 29.5292 45.5315L29.8188 45.521C29.9908 45.5175 30.1632 45.5117 30.3256 45.5021C30.5337 45.4887 30.7406 45.4697 30.9467 45.4508L31.1698 45.4288C31.3408 45.4129 31.5115 45.3967 31.6759 45.3759C31.9149 45.3473 32.1512 45.3114 32.3867 45.2743C32.5939 45.2419 32.8005 45.2068 33.0277 45.1651L33.1015 45.1508C33.6058 45.5809 34.2248 45.8542 34.8823 45.9368C37.5163 46.2725 40.1143 46.8471 42.6441 47.6534C44.1806 48.1393 45.6883 48.7117 47.1602 49.3678L47.4925 49.5168C47.5999 49.5654 47.7072 49.6109 47.8134 49.665C47.8438 49.679 47.8743 49.6944 47.9047 49.7086L48.2179 49.8584C48.8606 50.1653 49.5041 50.4784 50.1384 50.8193C50.633 51.0842 51.1854 51.2229 51.7465 51.223H54.6344C55.1736 51.2225 55.705 51.094 56.1848 50.848C56.6646 50.602 57.0792 50.2456 57.3942 49.8081C57.7093 49.3705 57.916 48.8644 57.9972 48.3313C58.0783 47.7982 58.0317 47.2535 57.8611 46.742ZM51.747 47.8206C51.0648 47.4541 50.3741 47.1183 49.6838 46.789C49.5675 46.7341 49.4517 46.675 49.3352 46.6218C49.1508 46.5296 48.9664 46.4495 48.782 46.3663C48.714 46.3361 48.6459 46.3062 48.5778 46.2749C46.9781 45.5601 45.339 44.9369 43.6685 44.4082C40.9438 43.5397 38.1455 42.9215 35.3084 42.5613C37.1245 41.9491 38.8456 41.0852 40.4217 39.9948C42.7916 40.5338 45.1207 41.2387 47.3917 42.1044L47.3931 42.1049L47.3912 42.1014L43.4248 35.2284L43.4152 35.2188C42.0138 36.9655 40.3057 38.442 38.3747 39.576L38.3804 39.5769C38.3472 39.5963 38.3126 39.6128 38.2794 39.632C38.0187 39.7835 37.7545 39.9285 37.4869 40.067C37.3958 40.1144 37.3052 40.1628 37.2133 40.2086C36.9583 40.3354 36.6995 40.4542 36.4391 40.5689C36.3433 40.6112 36.2492 40.657 36.1529 40.6976C35.8145 40.8398 35.4723 40.9732 35.1257 41.0953C34.9873 41.1441 34.8457 41.1847 34.7061 41.23C34.492 41.3 34.2779 41.37 34.0608 41.432C33.8814 41.483 33.7002 41.5272 33.5194 41.5734C33.3375 41.6195 33.1552 41.6647 32.9716 41.7054C32.7792 41.7479 32.5858 41.786 32.3917 41.8223C32.2158 41.8552 32.0393 41.8854 31.8621 41.9129C31.6626 41.9441 31.4634 41.9743 31.2622 41.999C31.0865 42.0207 30.9098 42.0366 30.7331 42.0534C30.5294 42.0723 30.3267 42.0934 30.1216 42.1058C29.9408 42.1168 29.7583 42.1187 29.5763 42.1244C29.3905 42.1299 29.2056 42.1434 29.019 42.1434H29.0091C26.9055 42.1406 24.8041 42.2803 22.7193 42.5613H22.7097C19.8726 42.9215 17.0743 43.5398 14.3494 44.4083C12.6854 44.937 11.0529 45.5602 9.45983 46.275C9.23644 46.3625 9.02238 46.4597 8.80861 46.5664C7.96279 46.9553 7.117 47.3733 6.2808 47.8206H3.40337L3.40529 47.8176H3.40282L11.6756 33.4982L11.7436 33.6247C12.3493 34.6712 13.0489 35.6604 13.8338 36.5801L10.6501 42.0932C12.9213 41.2256 15.2526 40.5243 17.6256 39.9948C18.2963 39.8394 18.9671 39.7033 19.6476 39.5768C19.6476 39.5768 19.6476 39.5867 19.6575 39.5768L19.6619 39.5763C17.7309 38.4421 16.0227 36.9655 14.6211 35.2188C14.0275 34.4993 13.4942 33.732 13.0267 32.9248L13.0075 32.8955C12.8343 32.5913 12.6879 32.2725 12.57 31.9429L29.0182 3.45975L41.3056 24.7396C39.576 23.382 37.6351 22.3178 35.5604 21.5896L29.0182 10.2745L21.2899 23.6506L21.2833 23.6619C23.7049 22.5321 26.3446 21.9464 29.0168 21.9458C31.6889 21.9453 34.3288 22.5299 36.7509 23.6586L36.7463 23.6506C36.7992 23.6748 36.8497 23.7025 36.9024 23.7277C37.4766 23.9991 38.0365 24.2998 38.5798 24.6287C38.7944 24.7571 39.0037 24.8878 39.2156 25.0214L39.2513 25.0461C39.8833 25.4673 40.4889 25.9269 41.0648 26.4221C41.0799 26.4353 41.096 26.4471 41.1111 26.46L41.1147 26.463C41.3496 26.6664 41.5763 26.8799 41.8013 27.095C41.8526 27.1439 41.9059 27.1889 41.957 27.238L41.9877 27.2688C42.7958 28.0652 43.5286 28.9346 44.1766 29.866C44.2035 29.9041 44.2345 29.9412 44.2609 29.9793C44.2719 29.9944 44.2817 30.0117 44.2925 30.0271C44.3641 30.1319 44.4327 30.2384 44.5021 30.3449C44.5153 30.366 44.5301 30.3858 44.543 30.4069C44.6382 30.5446 44.7211 30.6929 44.8081 30.8361C44.8803 30.9552 44.9588 31.0697 45.0285 31.1907L45.029 31.1942L45.0485 31.2236L54.6336 47.8175L54.6342 47.8205L51.747 47.8206Z" fill="url(#paint0_linear_263_4424)"/>
<path d="M81.198 14.6938H92.1325C93.9136 14.5855 95.6705 15.1497 97.0556 16.2748C97.6659 16.8694 98.1396 17.5897 98.4436 18.3857C98.7477 19.1817 98.8749 20.0344 98.8163 20.8845C98.8307 21.9091 98.5628 22.9179 98.0419 23.8003C97.5531 24.6416 96.8406 25.3309 95.9836 25.7917C97.1063 26.118 98.0797 26.8264 98.7354 27.7944C99.3912 28.7623 99.6881 29.929 99.5749 31.0926C99.606 32.3359 99.2865 33.5629 98.6528 34.6331C98.0563 35.6153 97.1941 36.4087 96.1659 36.9218C95.0874 37.4577 93.8968 37.7287 92.6926 37.7125H81.198V14.6938ZM91.4731 24.2776C92.3016 24.3183 93.1145 24.0412 93.7456 23.5029C94.0489 23.1945 94.2822 22.8246 94.4297 22.4181C94.5773 22.0116 94.6356 21.5781 94.6008 21.1471C94.6546 20.6967 94.6072 20.24 94.4621 19.8102C94.3169 19.3804 94.0777 18.9885 93.7618 18.6629C93.0332 18.1628 92.1564 17.9247 91.2749 17.9875H85.3466V24.2776H91.4731ZM91.7357 34.4187C92.686 34.4795 93.6299 34.2252 94.421 33.695C94.7654 33.3689 95.0294 32.9672 95.1922 32.5216C95.355 32.0761 95.4121 31.5988 95.359 31.1274C95.4048 30.6369 95.3397 30.1423 95.1685 29.6803C94.9974 29.2183 94.7245 28.8007 94.3702 28.4583C93.5406 27.8578 92.527 27.5667 91.5052 27.6355H85.3466V34.4187H91.7357Z" fill="white"/>
<path d="M103.378 44.1178C102.879 44.0691 102.387 43.9649 101.911 43.8072V40.6446C102.565 40.8821 103.258 40.9939 103.954 40.9742C104.627 41.0251 105.295 40.8256 105.83 40.4141C106.326 39.914 106.699 39.3046 106.918 38.6347L107.542 36.9892L100.727 21.906H104.908L109.783 33.4328L114.36 21.906H118.509L111.595 39.1306C111.069 40.603 110.193 41.9249 109.04 42.9817C107.944 43.8502 106.571 44.2945 105.173 44.2331C104.573 44.2318 103.973 44.1933 103.378 44.1178Z" fill="white"/>
<path d="M132.664 25.0687H130.328V21.9064H132.664V19.1728C132.61 18.3542 132.735 17.5336 133.031 16.7684C133.327 16.0032 133.786 15.3118 134.377 14.7426C135.633 13.6812 137.245 13.1346 138.887 13.2124C139.831 13.1927 140.77 13.3491 141.656 13.6734V17.0314C141.043 16.7649 140.381 16.6307 139.713 16.6375C138.925 16.573 138.142 16.8084 137.521 17.2967C137.26 17.5909 137.062 17.9357 136.94 18.3097C136.819 18.6837 136.775 19.0788 136.813 19.4702V21.9064H140.667V25.0687H136.813V37.7132H132.664V25.0687Z" fill="white"/>
<path d="M142.642 36.708C142.049 36.2218 141.576 35.6045 141.262 34.9046C140.947 34.2047 140.799 33.4413 140.83 32.6747C140.79 31.9041 140.922 31.1343 141.219 30.4219C141.515 29.7094 141.968 29.0726 142.543 28.5582C143.912 27.4961 145.621 26.9693 147.351 27.0762C149.151 27.0288 150.934 27.4489 152.523 28.2956V27.8669C152.563 27.4067 152.49 26.9436 152.308 26.5187C152.127 26.0938 151.844 25.7202 151.484 25.4307C150.473 24.8434 149.307 24.5788 148.141 24.6722C147.18 24.6719 146.22 24.7661 145.276 24.9535C144.415 25.1145 143.575 25.3735 142.773 25.7255V22.4666C143.622 22.1036 144.512 21.8487 145.424 21.7081C146.485 21.5164 147.56 21.4177 148.637 21.4133C150.815 21.2383 152.981 21.8645 154.729 23.1741C155.396 23.7948 155.919 24.5546 156.261 25.3998C156.602 26.245 156.753 27.1549 156.704 28.0651V37.7133H152.786V36.1669C152.117 36.8162 151.329 37.3303 150.465 37.6809C149.449 38.0583 148.37 38.2376 147.287 38.2089C145.609 38.2783 143.962 37.746 142.642 36.708ZM150.811 34.6339C151.514 34.3095 152.108 33.7893 152.523 33.1357V31.3909C151.311 30.533 149.857 30.0834 148.372 30.1074C146.156 30.1074 145.047 30.9631 145.046 32.6747C145.022 33.0325 145.086 33.3908 145.232 33.7182C145.378 34.0457 145.602 34.3325 145.885 34.5535C146.605 35.0142 147.454 35.2329 148.307 35.1778C149.172 35.1898 150.029 35.0037 150.811 34.6339Z" fill="white"/>
<path d="M160.491 13.3755H164.64V37.7128H160.491V13.3755Z" fill="white"/>
<path d="M169.162 18.4813C168.941 18.2689 168.767 18.0129 168.651 17.7296C168.535 17.4464 168.479 17.142 168.486 16.8358C168.482 16.5276 168.539 16.2216 168.655 15.9359C168.771 15.6502 168.943 15.3906 169.161 15.1725C169.379 14.9544 169.638 14.7822 169.924 14.6661C170.209 14.5499 170.515 14.4922 170.823 14.4963C171.134 14.4902 171.444 14.5468 171.732 14.6629C172.021 14.7789 172.283 14.952 172.504 15.1717C172.728 15.3859 172.906 15.6445 173.025 15.931C173.144 16.2175 173.202 16.5257 173.195 16.8358C173.202 17.1434 173.145 17.449 173.025 17.7326C172.906 18.0162 172.729 18.2713 172.504 18.4813C172.281 18.6968 172.018 18.866 171.73 18.9792C171.441 19.0924 171.133 19.1473 170.823 19.1408C170.516 19.148 170.211 19.0933 169.925 18.98C169.64 18.8668 169.38 18.6972 169.162 18.4813ZM168.717 21.9065H172.932V37.7134H168.717V21.9065Z" fill="white"/>
<path d="M180.887 37.2032C179.542 36.5793 178.412 35.5701 177.641 34.3036C176.888 32.9375 176.492 31.4034 176.489 29.8433C176.486 28.2833 176.877 26.7478 177.625 25.379C178.396 24.1051 179.525 23.0864 180.871 22.4497C182.402 21.766 184.059 21.4126 185.736 21.4126C187.413 21.4126 189.071 21.766 190.602 22.4497C191.942 23.0933 193.069 24.1105 193.845 25.379C194.634 26.7196 195.033 28.254 194.997 29.8092C195.039 31.3853 194.64 32.9419 193.845 34.3036C193.074 35.5693 191.946 36.5784 190.602 37.2032C189.068 37.8662 187.415 38.2082 185.744 38.2082C184.074 38.2082 182.42 37.8662 180.887 37.2032ZM189.366 33.5156C190.237 32.465 190.714 31.1442 190.717 29.7799C190.72 28.4156 190.248 27.0928 189.382 26.0384C188.375 25.1572 187.082 24.6715 185.743 24.6715C184.404 24.6715 183.111 25.1572 182.103 26.0384C181.239 27.0935 180.768 28.4164 180.771 29.7804C180.775 31.1445 181.252 32.4649 182.122 33.5156C183.104 34.435 184.399 34.9465 185.744 34.9465C187.089 34.9465 188.384 34.435 189.366 33.5156Z" fill="white"/>
<path d="M72.5164 43.9464H79.4321V41.1747H75.2879V11.2342H79.4321V8.46216H72.5164L72.5164 43.9464ZM118.127 8.46216V11.2342H122.271V41.1747H118.127V43.9464H125.043V8.46216H118.127Z" fill="url(#paint1_linear_263_4424)"/>
<defs>
<linearGradient id="paint0_linear_263_4424" x1="9.11868" y1="58.3471" x2="48.9182" y2="18.5476" gradientUnits="userSpaceOnUse">
<stop stop-color="#5FE900"/>
<stop offset="0.11016" stop-color="#5DE806"/>
<stop offset="0.25444" stop-color="#59E616"/>
<stop offset="0.41768" stop-color="#51E231"/>
<stop offset="0.59486" stop-color="#46DD57"/>
<stop offset="0.78333" stop-color="#38D788"/>
<stop offset="0.97842" stop-color="#27CFC2"/>
<stop offset="1" stop-color="#25CEC9"/>
</linearGradient>
<linearGradient id="paint1_linear_263_4424" x1="76.7769" y1="48.2069" x2="120.782" y2="4.20166" gradientUnits="userSpaceOnUse">
<stop stop-color="#5FE900"/>
<stop offset="0.11016" stop-color="#5DE806"/>
<stop offset="0.25444" stop-color="#59E616"/>
<stop offset="0.41768" stop-color="#51E231"/>
<stop offset="0.59486" stop-color="#46DD57"/>
<stop offset="0.78333" stop-color="#38D788"/>
<stop offset="0.97842" stop-color="#27CFC2"/>
<stop offset="1" stop-color="#25CEC9"/>
</linearGradient>
</defs>
</svg>
