<svg width="24" height="24" viewBox="0 0 24 24" fill="none" xmlns="http://www.w3.org/2000/svg">
<g clip-path="url(#clip0_302_1305)">
<path d="M12 0.0512695C9.34507 0.0512695 6.82291 0.912082 4.75057 2.50049V2.15989C4.75057 1.77172 4.4359 1.457 4.04768 1.457C3.65946 1.457 3.34479 1.77168 3.34479 2.15989V4.04872C3.34479 4.67675 4.10365 4.98393 4.54376 4.54654C4.60708 4.50435 7.26621 1.457 11.9999 1.457C17.8134 1.457 22.543 6.1866 22.543 12C22.543 17.8135 17.8134 22.5431 12 22.5431C6.18654 22.5431 1.45694 17.8135 1.45694 12C1.45694 10.3822 1.81347 8.83049 2.51655 7.38791C2.68666 7.03893 2.54163 6.61818 2.19269 6.44816C1.84371 6.27791 1.42296 6.42304 1.25294 6.77202C0.455552 8.4081 0.0512085 10.167 0.0512085 12C0.0512085 18.6038 5.39529 23.9488 12 23.9488C18.6038 23.9488 23.9487 18.6047 23.9487 12C23.9487 5.39624 18.6047 0.0512695 12 0.0512695Z" fill="#ACACB8"/>
<path d="M12 20.4345C16.6507 20.4345 20.4344 16.6508 20.4344 12.0001C20.4344 7.34938 16.6507 3.56567 12 3.56567C7.34921 3.56567 3.56555 7.34933 3.56555 12.0001C3.56555 16.6508 7.34921 20.4345 12 20.4345ZM8.04657 14.2627L11.2971 11.6623V7.78288C11.2971 7.39471 11.6118 7.07999 12 7.07999C12.3882 7.07999 12.7029 7.39466 12.7029 7.78288V12.0001C12.7029 12.2136 12.6058 12.4155 12.4391 12.5489L8.92472 15.3604C8.62299 15.6019 8.18035 15.5551 7.93683 15.2506C7.6943 14.9475 7.74343 14.5052 8.04657 14.2627Z" fill="#ACACB8"/>
</g>
<defs>
<clipPath id="clip0_302_1305">
<rect width="24" height="24" fill="white"/>
</clipPath>
</defs>
</svg>
