<svg width="24" height="25" viewBox="0 0 24 25" fill="none" xmlns="http://www.w3.org/2000/svg">
<g clip-path="url(#clip0_302_1324)">
<path d="M10.3639 24.014C4.94201 23.3361 0.682773 19.0769 0.00565545 13.6564C-0.047415 13.2376 0.279775 12.866 0.703401 12.866H3.54586C3.88922 12.866 4.18177 13.1139 4.23948 13.4518C4.78612 16.6891 7.32915 19.2328 10.5686 19.7801C10.9064 19.8378 11.1543 20.1304 11.1543 20.4738V23.3162C11.1543 23.7344 10.7917 24.0649 10.3639 24.014Z" fill="#ACACB8"/>
<path d="M3.54604 11.272H0.703579C0.279718 11.272 -0.0471904 10.9001 0.00583322 10.4815C0.750273 4.51775 5.84598 0.0202637 11.8578 0.0202637C14.5285 0.0202637 17.0606 0.891051 19.1805 2.53858C19.5177 2.80164 19.543 3.29488 19.2465 3.59136L17.2371 5.60148C16.9939 5.84526 16.6121 5.8755 16.3319 5.677C15.0126 4.73683 13.4654 4.23965 11.8577 4.23965C8.07442 4.23965 4.87003 6.95093 4.23961 10.6862C4.18195 11.024 3.8894 11.272 3.54604 11.272Z" fill="#ACACB8"/>
<path d="M12.7483 23.3169V20.4744C12.7483 20.1311 12.9962 19.8385 13.3341 19.7808C17.0693 19.1504 19.7806 15.946 19.7806 12.1627C19.7806 10.555 19.2834 9.0078 18.3432 7.68854C18.1441 7.40903 18.1757 7.02581 18.4188 6.78338L20.4289 4.77397C20.7216 4.48129 21.2164 4.49985 21.4817 4.83989C23.1292 6.9599 24 9.49195 24 12.1627C24 18.1745 19.5024 23.2702 13.5387 24.0146C13.1062 24.0662 12.7483 23.7303 12.7483 23.3169Z" fill="#ACACB8"/>
<path d="M10 9.20933C10 8.82096 9.77613 8.5061 9.5 8.5061H8.5C8.22387 8.5061 8 8.82096 8 9.20933V14.8352C8 15.2236 8.22387 15.5384 8.5 15.5384H9.5C9.77613 15.5384 10 15.2236 10 14.8352V9.20933Z" fill="#ACACB8"/>
<path d="M13 14.8351V7.80284C13 7.41447 12.7761 7.09961 12.5 7.09961H11.5C11.2239 7.09961 11 7.41447 11 7.80284V14.8351C11 15.2235 11.2239 15.5384 11.5 15.5384H12.5C12.7762 15.5384 13 15.2235 13 14.8351Z" fill="#ACACB8"/>
<path d="M16 14.8352V12.0223C16 11.634 15.7761 11.3191 15.5 11.3191H14.5C14.2239 11.3191 14 11.634 14 12.0223V14.8352C14 15.2236 14.2239 15.5385 14.5 15.5385H15.5C15.7762 15.5385 16 15.2236 16 14.8352Z" fill="#ACACB8"/>
</g>
<defs>
<clipPath id="clip0_302_1324">
<rect width="24" height="24" fill="white" transform="translate(0 0.0200195)"/>
</clipPath>
</defs>
</svg>
