<svg width="21" height="22" viewBox="0 0 21 22" fill="none" xmlns="http://www.w3.org/2000/svg">
<path d="M19.95 1.07002H16.8V0.0200195H4.2V1.07002H1.05C0.42 1.07002 0 1.49002 0 2.12002V4.64002C0 7.05502 1.785 9.05002 4.2 9.36502V9.47002C4.2 12.515 6.3 15.035 9.135 15.665L8.4 17.87H5.985C5.565 17.87 5.145 18.185 5.04 18.605L4.2 21.02H16.8L15.96 18.605C15.855 18.185 15.435 17.87 15.015 17.87H12.6L11.865 15.665C14.7 15.035 16.8 12.515 16.8 9.47002V9.36502C19.215 9.05002 21 7.05502 21 4.64002V2.12002C21 1.49002 20.58 1.07002 19.95 1.07002ZM4.2 7.26502C3.045 6.95002 2.1 5.90002 2.1 4.64002V3.17002H4.2V7.26502ZM12.6 10.52L10.5 9.36502L8.4 10.52L8.925 8.42002L7.35 6.32002H9.555L10.5 4.22002L11.445 6.32002H13.65L12.075 8.42002L12.6 10.52ZM18.9 4.64002C18.9 5.90002 17.955 7.05502 16.8 7.26502V3.17002H18.9V4.64002Z" fill="#ACACB8"/>
</svg>
