<svg width="24" height="25" viewBox="0 0 24 25" fill="none" xmlns="http://www.w3.org/2000/svg">
<path d="M21.75 6.5H2.25C1.42162 6.5 0.75 5.82838 0.75 5C0.75 4.17162 1.42162 3.5 2.25 3.5H21.75C22.5784 3.5 23.25 4.17162 23.25 5C23.25 5.82838 22.5784 6.5 21.75 6.5Z" fill="white"/>
<path d="M21.75 21.5H2.25C1.42162 21.5 0.75 20.8284 0.75 20C0.75 19.1716 1.42162 18.5 2.25 18.5H21.75C22.5784 18.5 23.25 19.1716 23.25 20C23.25 20.8284 22.5784 21.5 21.75 21.5Z" fill="white"/>
<path d="M21.75 14H2.25C1.42162 14 0.75 13.3284 0.75 12.5C0.75 11.6716 1.42162 11 2.25 11H21.75C22.5784 11 23.25 11.6716 23.25 12.5C23.25 13.3284 22.5784 14 21.75 14Z" fill="white"/>
</svg>
