<svg width="30" height="30" viewBox="0 0 30 30" fill="none" xmlns="http://www.w3.org/2000/svg">
<path d="M3.75 15C3.75 16.4774 4.04099 17.9403 4.60636 19.3052C5.17172 20.6701 6.00039 21.9103 7.04505 22.955C8.08971 23.9996 9.3299 24.8283 10.6948 25.3936C12.0597 25.959 13.5226 26.25 15 26.25C16.4774 26.25 17.9403 25.959 19.3052 25.3936C20.6701 24.8283 21.9103 23.9996 22.955 22.955C23.9996 21.9103 24.8283 20.6701 25.3936 19.3052C25.959 17.9403 26.25 16.4774 26.25 15C26.25 13.5226 25.959 12.0597 25.3936 10.6948C24.8283 9.3299 23.9996 8.08971 22.955 7.04505C21.9103 6.00039 20.6701 5.17172 19.3052 4.60636C17.9403 4.04099 16.4774 3.75 15 3.75C13.5226 3.75 12.0597 4.04099 10.6948 4.60636C9.3299 5.17172 8.08971 6.00039 7.04505 7.04505C6.00039 8.08971 5.17172 9.3299 4.60636 10.6948C4.04099 12.0597 3.75 13.5226 3.75 15Z" stroke="#90919B" stroke-width="2" stroke-linecap="round" stroke-linejoin="round"/>
<path d="M18.5 11.25C18.2736 10.8572 17.9446 10.5334 17.5482 10.3132C17.1519 10.093 16.7031 9.98474 16.25 10H13.75C13.087 10 12.4511 10.2634 11.9822 10.7322C11.5134 11.2011 11.25 11.837 11.25 12.5C11.25 13.163 11.5134 13.7989 11.9822 14.2678C12.4511 14.7366 13.087 15 13.75 15H16.25C16.913 15 17.5489 15.2634 18.0178 15.7322C18.4866 16.2011 18.75 16.837 18.75 17.5C18.75 18.163 18.4866 18.7989 18.0178 19.2678C17.5489 19.7366 16.913 20 16.25 20H13.75C13.2969 20.0153 12.8481 19.907 12.4518 19.6868C12.0554 19.4666 11.7264 19.1428 11.5 18.75M15 8.75V21.25" stroke="#90919B" stroke-width="2" stroke-linecap="round" stroke-linejoin="round"/>
</svg>
