<svg width="20" height="22" viewBox="0 0 20 22" fill="none" xmlns="http://www.w3.org/2000/svg">
<path d="M19.0378 17.7095V18.7095H0.725586V17.7095L2.76028 15.7095V9.70947C2.76028 6.60947 4.82549 3.87947 7.84701 2.99947V2.70947C7.84701 2.17904 8.06138 1.67033 8.44296 1.29526C8.82454 0.920186 9.34207 0.709473 9.88171 0.709473C10.4213 0.709473 10.9389 0.920186 11.3205 1.29526C11.702 1.67033 11.9164 2.17904 11.9164 2.70947V2.99947C14.9379 3.87947 17.0031 6.60947 17.0031 9.70947V15.7095L19.0378 17.7095ZM11.9164 19.7095C11.9164 20.2399 11.702 20.7486 11.3205 21.1237C10.9389 21.4988 10.4213 21.7095 9.88171 21.7095C9.34207 21.7095 8.82454 21.4988 8.44296 21.1237C8.06138 20.7486 7.84701 20.2399 7.84701 19.7095" fill="white"/>
</svg>
