<svg width="17" height="22" viewBox="0 0 17 22" fill="none" xmlns="http://www.w3.org/2000/svg">
<path d="M9.00004 21V3.41403L14.293 8.70703C14.3853 8.80254 14.4956 8.87872 14.6176 8.93113C14.7396 8.98354 14.8709 9.01113 15.0036 9.01228C15.1364 9.01344 15.2681 8.98813 15.391 8.93785C15.5139 8.88757 15.6255 8.81332 15.7194 8.71943C15.8133 8.62553 15.8876 8.51388 15.9379 8.39098C15.9881 8.26809 16.0134 8.13641 16.0123 8.00363C16.0111 7.87085 15.9836 7.73963 15.9311 7.61763C15.8787 7.49562 15.8026 7.38528 15.707 7.29303L8.70704 0.293031C8.51951 0.10556 8.26521 0.000244141 8.00004 0.000244141C7.73488 0.000244141 7.48057 0.10556 7.29304 0.293031L0.29304 7.29303C0.110882 7.48163 0.0100879 7.73423 0.0123663 7.99643C0.0146447 8.25863 0.119814 8.50944 0.305223 8.69485C0.490631 8.88026 0.741443 8.98543 1.00364 8.9877C1.26584 8.98998 1.51844 8.88919 1.70704 8.70703L7.00004 3.41403L7.00004 21C7.00004 21.2652 7.1054 21.5196 7.29293 21.7071C7.48047 21.8947 7.73482 22 8.00004 22C8.26526 22 8.51961 21.8947 8.70715 21.7071C8.89468 21.5196 9.00004 21.2652 9.00004 21Z" fill="#6BC925"/>
</svg>
