<svg width="31" height="33" viewBox="0 0 31 33" fill="none" xmlns="http://www.w3.org/2000/svg">
<path d="M25.1001 32.7259C24.8483 32.5063 24.5834 32.3012 24.3478 32.0652C22.5983 30.3086 20.8553 28.5454 19.1081 26.7864C19.0192 26.6966 18.9116 26.625 18.7578 26.5C18.9465 26.3398 19.0696 26.1972 19.224 26.1153C19.3893 26.0279 19.5917 25.9339 19.7648 25.9551C20.5068 26.0474 21.2452 26.1723 21.9824 26.3016C23.7518 26.6122 25.1067 25.6123 25.3494 23.8084C25.4029 23.4092 25.466 23.0117 25.5327 22.5615C25.6342 22.6507 25.7033 22.7047 25.7646 22.7666C27.1525 24.1658 28.5374 25.568 29.9295 26.963C30.2112 27.2457 30.3879 27.5564 30.2743 27.9592C30.1596 28.3652 29.8453 28.532 29.4518 28.6024C28.6221 28.7517 27.7965 28.9228 26.9662 29.069C26.7896 29.1 26.7163 29.1697 26.6856 29.3433C26.5438 30.149 26.3762 30.9506 26.2494 31.7582C26.1773 32.2187 25.9857 32.5573 25.5429 32.7259H25.1001Z" fill="#969696"/>
<path d="M5.66836 32.7251C5.22315 32.5582 5.0363 32.2166 4.9636 31.7579C4.83563 30.9503 4.6686 30.1494 4.5268 29.3442C4.49676 29.1737 4.43007 29.0985 4.25043 29.0669C3.38945 28.9146 2.53268 28.7411 1.67351 28.5809C1.31002 28.513 1.04445 28.3212 0.940511 27.9626C0.840775 27.6204 0.940511 27.3134 1.19286 27.0586C2.65465 25.5854 4.11584 24.1109 5.57824 22.6377C5.59206 22.6238 5.61369 22.6171 5.67918 22.5801C5.74166 22.9872 5.81016 23.3749 5.86002 23.7651C6.01564 24.9919 6.61646 25.8645 7.81028 26.2582C8.36965 26.4427 8.93682 26.3523 9.49979 26.2601C10.082 26.1648 10.6678 26.0847 11.2434 25.9597C11.6315 25.8754 11.9229 25.9634 12.1632 26.2746C12.2203 26.348 12.3086 26.3972 12.4811 26.538C12.3327 26.6296 12.2173 26.6733 12.1374 26.7534C10.3151 28.5852 8.49882 30.4236 6.67413 32.2524C6.49088 32.4357 6.25837 32.5685 6.04808 32.7245H5.66836V32.7251Z" fill="#969696"/>
<path d="M22.3913 25.2622C21.776 25.1609 20.9914 25.0565 20.2181 24.8982C19.446 24.7398 18.8146 24.9103 18.278 25.5098C17.819 26.0225 17.3197 26.4988 16.8367 26.989C16.028 27.81 15.1892 27.8136 14.3865 26.9994C13.8885 26.4939 13.379 25.9988 12.8995 25.4752C12.4026 24.9327 11.818 24.741 11.1031 24.8787C10.4097 25.0122 9.71156 25.1166 9.01581 25.2367C7.9067 25.4279 7.13224 24.88 6.95259 23.7611C6.83303 23.016 6.72308 22.2697 6.62034 21.5222C6.53262 20.8838 6.222 20.4179 5.64341 20.1315C4.96268 19.7947 4.28555 19.4501 3.60843 19.1048C2.59845 18.5897 2.31426 17.7014 2.83217 16.6814C3.17344 16.0104 3.5159 15.3393 3.86558 14.6725C4.16539 14.1009 4.16479 13.539 3.86378 12.9675C3.50809 12.2915 3.16142 11.6114 2.81775 10.9294C2.32087 9.94338 2.60686 9.05084 3.58139 8.55027C4.2477 8.20805 4.91521 7.86766 5.58933 7.54122C6.20217 7.24391 6.53803 6.76579 6.62515 6.08622C6.72008 5.3484 6.83423 4.61301 6.95079 3.87883C7.12623 2.77635 7.87065 2.23451 8.98457 2.40319C9.68272 2.50877 10.3797 2.62284 11.073 2.75633C11.782 2.89285 12.3774 2.73509 12.8791 2.18901C13.3591 1.66659 13.8686 1.17087 14.3661 0.66483C15.188 -0.171283 16.022 -0.174924 16.8385 0.655122C17.336 1.16116 17.8467 1.65567 18.3255 2.1793C18.8344 2.7363 19.437 2.89103 20.1592 2.7539C20.9247 2.60828 21.6949 2.47843 22.4682 2.38317C23.3388 2.27638 24.0525 2.80547 24.2165 3.6786C24.3674 4.48195 24.4791 5.29379 24.5903 6.10442C24.6798 6.75608 24.9946 7.22814 25.5846 7.51877C26.2563 7.84946 26.9238 8.18985 27.592 8.52963C28.6218 9.05387 28.9035 9.93367 28.3742 10.9749C28.0378 11.6368 27.7049 12.3006 27.3564 12.9559C27.0464 13.5384 27.0476 14.1064 27.3564 14.6888C27.6989 15.3356 28.0245 15.9909 28.3568 16.6432C28.9065 17.7238 28.6296 18.5885 27.5607 19.1285C26.9202 19.4519 26.2828 19.7814 25.6369 20.0938C25.0138 20.3954 24.6696 20.8772 24.5849 21.5719C24.4959 22.2994 24.3764 23.0233 24.2652 23.7484C24.1144 24.7325 23.4505 25.3223 22.3919 25.2622H22.3913ZM5.91798 13.6228C5.95643 19.0569 10.3112 23.4067 15.6423 23.3952C20.9787 23.3837 25.3257 18.9179 25.295 13.5506C25.2644 8.14556 20.9607 3.76112 15.5864 3.76051C10.2295 3.76051 5.87112 8.25295 5.91738 13.6228H5.91798Z" fill="url(#paint0_linear_407_106005)"/>
<path d="M7.33008 13.558C7.35051 8.95025 11.1237 5.12889 15.6226 5.17622C20.196 5.22415 23.8833 8.9363 23.8773 13.5883C23.8712 18.2039 20.1366 21.9501 15.6094 21.9531C11.0798 21.9555 7.31025 18.1335 7.33068 13.558H7.33008Z" fill="url(#paint1_linear_407_106005)"/>
<path d="M12.8146 17.7871V16.5406L15.727 13.8439C15.9747 13.6042 16.1825 13.3885 16.3502 13.1967C16.5207 13.0049 16.6499 12.8172 16.7378 12.6334C16.8257 12.447 16.8696 12.2459 16.8696 12.0301C16.8696 11.7904 16.815 11.584 16.7058 11.4109C16.5966 11.2351 16.4475 11.1006 16.2584 11.0074C16.0693 10.9115 15.8549 10.8635 15.6151 10.8635C15.3648 10.8635 15.1464 10.9142 14.9599 11.0154C14.7735 11.1166 14.6297 11.2617 14.5285 11.4508C14.4273 11.6399 14.3767 11.865 14.3767 12.126H12.7347C12.7347 11.5907 12.8558 11.1259 13.0982 10.7317C13.3406 10.3375 13.6802 10.0326 14.117 9.81682C14.5538 9.60109 15.0572 9.49322 15.6271 9.49322C16.2131 9.49322 16.7231 9.59709 17.1573 9.80484C17.5941 10.0099 17.9337 10.2949 18.176 10.6598C18.4184 11.0247 18.5396 11.4428 18.5396 11.9143C18.5396 12.2232 18.4783 12.5282 18.3558 12.8292C18.236 13.1301 18.0215 13.4644 17.7126 13.8319C17.4036 14.1968 16.9682 14.635 16.4062 15.1463L15.2116 16.3169V16.3728H18.6475V17.7871H12.8146Z" fill="black"/>
<defs>
<linearGradient id="paint0_linear_407_106005" x1="15.6068" y1="0.0351562" x2="15.6068" y2="27.6074" gradientUnits="userSpaceOnUse">
<stop stop-color="#B6B6B6"/>
<stop offset="0.203125" stop-color="#959595"/>
<stop offset="0.46875" stop-color="#E6E6E6"/>
<stop offset="0.6875" stop-color="#8A8A8A"/>
<stop offset="1" stop-color="#D0D0D0"/>
</linearGradient>
<linearGradient id="paint1_linear_407_106005" x1="15.6037" y1="5.17578" x2="15.6037" y2="21.9531" gradientUnits="userSpaceOnUse">
<stop stop-color="#B6B6B6"/>
<stop offset="0.203125" stop-color="#959595"/>
<stop offset="0.46875" stop-color="#E6E6E6"/>
<stop offset="0.6875" stop-color="#8A8A8A"/>
<stop offset="1" stop-color="#D0D0D0"/>
</linearGradient>
</defs>
</svg>
