<svg width="31" height="34" viewBox="0 0 31 34" fill="none" xmlns="http://www.w3.org/2000/svg">
<path d="M25.1001 33.1379C24.8483 32.9183 24.5834 32.7132 24.3479 32.4772C22.5983 30.7206 20.8553 28.9574 19.1081 27.1984C19.0192 27.1086 18.9116 27.0371 18.7578 26.9121C18.9465 26.7519 19.0696 26.6093 19.224 26.5274C19.3893 26.44 19.5918 26.346 19.7648 26.3672C20.5068 26.4594 21.2452 26.5844 21.9824 26.7137C23.7518 27.0243 25.1067 26.0244 25.3494 24.2205C25.4029 23.8213 25.466 23.4238 25.5327 22.9736C25.6342 23.0628 25.7033 23.1168 25.7646 23.1787C27.1525 24.5779 28.5374 25.9801 29.9295 27.375C30.2113 27.6578 30.3879 27.9684 30.2744 28.3713C30.1596 28.7772 29.8454 28.9441 29.4518 29.0145C28.6221 29.1637 27.7966 29.3348 26.9662 29.4811C26.7896 29.512 26.7163 29.5818 26.6856 29.7553C26.5439 30.5611 26.3762 31.3626 26.2495 32.1702C26.1774 32.6307 25.9857 32.9693 25.5429 33.1379H25.1001Z" fill="#E7B918"/>
<path d="M5.66837 33.1371C5.22316 32.9702 5.03631 32.6286 4.96361 32.1699C4.83563 31.3623 4.66861 30.5614 4.52681 29.7563C4.49677 29.5858 4.43008 29.5105 4.25044 29.479C3.38946 29.3267 2.53269 29.1531 1.67351 28.993C1.31002 28.925 1.04445 28.7333 0.940511 28.3747C0.840775 28.0325 0.940511 27.7255 1.19286 27.4706C2.65465 25.9974 4.11585 24.523 5.57825 23.0498C5.59207 23.0359 5.6137 23.0292 5.67919 22.9922C5.74167 23.3993 5.81017 23.787 5.86004 24.1772C6.01565 25.404 6.61647 26.2765 7.8103 26.6703C8.36967 26.8548 8.93684 26.7644 9.49981 26.6721C10.082 26.5769 10.6678 26.4968 11.2434 26.3718C11.6315 26.2875 11.9229 26.3754 12.1633 26.6867C12.2203 26.7601 12.3086 26.8093 12.4811 26.95C12.3327 27.0416 12.2173 27.0853 12.1374 27.1654C10.3151 28.9972 8.49884 30.8357 6.67415 32.6644C6.4909 32.8477 6.25838 32.9805 6.04809 33.1365H5.66837V33.1371Z" fill="#E7B918"/>
<path d="M22.3913 25.6741C21.7761 25.5727 20.9914 25.4684 20.2181 25.31C19.4461 25.1516 18.8146 25.3221 18.2781 25.9216C17.8191 26.4343 17.3198 26.9106 16.8367 27.4009C16.028 28.2218 15.1893 28.2255 14.3866 27.4112C13.8885 26.9058 13.379 26.4107 12.8995 25.887C12.4027 25.3446 11.8181 25.1529 11.1031 25.2906C10.4097 25.4241 9.71158 25.5284 9.01582 25.6486C7.90671 25.8397 7.13225 25.2918 6.9526 24.173C6.83304 23.4279 6.72309 22.6816 6.62035 21.934C6.53263 21.2957 6.22201 20.8298 5.64341 20.5434C4.96268 20.2066 4.28556 19.862 3.60843 19.5167C2.59845 19.0016 2.31426 18.1133 2.83217 17.0934C3.17344 16.4223 3.51591 15.7512 3.86558 15.0844C4.16539 14.5129 4.16479 13.951 3.86378 13.3794C3.5081 12.7035 3.16142 12.0233 2.81775 11.3414C2.32087 10.3554 2.60686 9.46286 3.5814 8.96229C4.24771 8.62008 4.91522 8.27969 5.58934 7.95326C6.20218 7.65595 6.53804 7.17783 6.62516 6.49826C6.72009 5.76045 6.83424 5.02507 6.9508 4.2909C7.12624 3.18843 7.87066 2.6466 8.98458 2.81528C9.68274 2.92085 10.3797 3.03492 11.073 3.16841C11.782 3.30493 12.3774 3.14717 12.8791 2.60109C13.3592 2.07868 13.8687 1.58296 14.3661 1.07693C15.1881 0.240828 16.022 0.237188 16.8385 1.06722C17.336 1.57326 17.8467 2.06776 18.3256 2.59139C18.8344 3.14838 19.4371 3.30311 20.1593 3.16598C20.9247 3.02036 21.695 2.89052 22.4682 2.79525C23.3388 2.68847 24.0526 3.21755 24.2166 4.09067C24.3674 4.89401 24.4792 5.70585 24.5903 6.51647C24.6798 7.16812 24.9947 7.64017 25.5847 7.93081C26.2564 8.26149 26.9239 8.60187 27.592 8.94165C28.6218 9.46589 28.9036 10.3457 28.3743 11.3869C28.0378 12.0488 27.705 12.7126 27.3565 13.3679C27.0465 13.9504 27.0477 14.5183 27.3565 15.1008C27.699 15.7476 28.0246 16.4029 28.3569 17.0551C28.9066 18.1358 28.6296 19.0004 27.5608 19.5404C26.9203 19.8638 26.2828 20.1933 25.6369 20.5057C25.0139 20.8073 24.6696 21.2891 24.5849 21.9838C24.496 22.7113 24.3764 23.4351 24.2653 24.1602C24.1145 25.1444 23.4506 25.7341 22.3919 25.6741H22.3913ZM5.91799 14.0347C5.95644 19.4688 10.3112 23.8186 15.6423 23.8071C20.9788 23.7956 25.3257 19.3299 25.2951 13.9625C25.2644 8.55758 20.9608 4.17319 15.5864 4.17258C10.2295 4.17258 5.87113 8.66498 5.91739 14.0347H5.91799Z" fill="url(#paint0_linear_407_105983)"/>
<path d="M7.33008 13.969C7.35051 9.36135 11.1237 5.54002 15.6226 5.58735C20.1961 5.63528 23.8833 9.34739 23.8773 13.9994C23.8713 18.6149 20.1366 22.361 15.6094 22.364C11.0798 22.3665 7.31025 18.5445 7.33068 13.969H7.33008Z" fill="url(#paint1_linear_407_105983)"/>
<path d="M16.714 10.0182V18.2002H14.9842V11.6602H14.9362L13.0625 12.8348V11.3006L15.088 10.0182H16.714Z" fill="black"/>
<defs>
<linearGradient id="paint0_linear_407_105983" x1="15.6069" y1="0.447266" x2="15.6069" y2="28.0192" gradientUnits="userSpaceOnUse">
<stop stop-color="#FFC700"/>
<stop offset="0.203125" stop-color="#E2B71B"/>
<stop offset="0.46875" stop-color="#FFE58A"/>
<stop offset="0.6875" stop-color="#FFC700"/>
<stop offset="1" stop-color="#FFC700"/>
</linearGradient>
<linearGradient id="paint1_linear_407_105983" x1="15.6037" y1="5.58691" x2="15.6037" y2="22.364" gradientUnits="userSpaceOnUse">
<stop stop-color="#FFC700"/>
<stop offset="0.203125" stop-color="#E2B71B"/>
<stop offset="0.46875" stop-color="#FFE58A"/>
<stop offset="0.6875" stop-color="#FFC700"/>
<stop offset="1" stop-color="#FFC700"/>
</linearGradient>
</defs>
</svg>
