<svg width="31" height="34" viewBox="0 0 31 34" fill="none" xmlns="http://www.w3.org/2000/svg">
<path d="M25.1001 33.3138C24.8483 33.0942 24.5834 32.8891 24.3478 32.6531C22.5983 30.8965 20.8553 29.1333 19.1081 27.3743C19.0192 27.2845 18.9116 27.2129 18.7578 27.0879C18.9465 26.9277 19.0696 26.7851 19.224 26.7032C19.3893 26.6158 19.5917 26.5218 19.7648 26.543C20.5068 26.6352 21.2452 26.7602 21.9824 26.8895C23.7518 27.2001 25.1067 26.2002 25.3494 24.3963C25.4029 23.9971 25.466 23.5996 25.5327 23.1494C25.6342 23.2386 25.7033 23.2926 25.7646 23.3545C27.1525 24.7537 28.5374 26.1559 29.9295 27.5508C30.2112 27.8336 30.3879 28.1443 30.2743 28.5471C30.1596 28.9531 29.8453 29.1199 29.4518 29.1903C28.6221 29.3396 27.7965 29.5107 26.9662 29.6569C26.7896 29.6878 26.7163 29.7576 26.6856 29.9312C26.5438 30.7369 26.3762 31.5385 26.2494 32.3461C26.1773 32.8066 25.9857 33.1452 25.5429 33.3138H25.1001Z" fill="#EF974C"/>
<path d="M5.66836 33.313C5.22315 33.1461 5.0363 32.8045 4.9636 32.3458C4.83563 31.5382 4.6686 30.7373 4.5268 29.9321C4.49676 29.7616 4.43007 29.6864 4.25043 29.6548C3.38945 29.5025 2.53268 29.329 1.67351 29.1688C1.31002 29.1009 1.04445 28.9091 0.940511 28.5505C0.840775 28.2083 0.940511 27.9013 1.19286 27.6465C2.65465 26.1732 4.11584 24.6988 5.57824 23.2256C5.59206 23.2117 5.61369 23.205 5.67918 23.168C5.74166 23.5751 5.81016 23.9628 5.86002 24.353C6.01564 25.5798 6.61646 26.4524 7.81028 26.8461C8.36965 27.0306 8.93682 26.9402 9.49979 26.848C10.082 26.7527 10.6678 26.6726 11.2434 26.5476C11.6315 26.4633 11.9229 26.5513 12.1632 26.8625C12.2203 26.9359 12.3086 26.9851 12.4811 27.1259C12.3327 27.2175 12.2173 27.2612 12.1374 27.3413C10.3151 29.1731 8.49882 31.0115 6.67413 32.8403C6.49088 33.0235 6.25837 33.1564 6.04808 33.3124H5.66836V33.313Z" fill="#EF974C"/>
<path d="M22.3913 25.8501C21.776 25.7488 20.9914 25.6444 20.2181 25.4861C19.446 25.3277 18.8146 25.4982 18.278 26.0977C17.819 26.6104 17.3197 27.0867 16.8367 27.5769C16.028 28.3979 15.1892 28.4015 14.3865 27.5873C13.8885 27.0818 13.379 26.5867 12.8995 26.0631C12.4026 25.5206 11.818 25.3289 11.1031 25.4666C10.4097 25.6001 9.71156 25.7045 9.01581 25.8246C7.9067 26.0158 7.13224 25.4678 6.95259 24.349C6.83303 23.6039 6.72308 22.8576 6.62034 22.11C6.53262 21.4717 6.222 21.0057 5.64341 20.7194C4.96268 20.3826 4.28555 20.038 3.60843 19.6927C2.59845 19.1776 2.31426 18.2893 2.83217 17.2693C3.17344 16.5983 3.5159 15.9272 3.86558 15.2603C4.16539 14.6888 4.16479 14.1269 3.86378 13.5554C3.50809 12.8794 3.16142 12.1993 2.81775 11.5173C2.32087 10.5313 2.60686 9.63873 3.58139 9.13816C4.2477 8.79594 4.91521 8.45555 5.58933 8.12912C6.20217 7.8318 6.53803 7.35368 6.62515 6.67411C6.72008 5.93629 6.83423 5.2009 6.95079 4.46672C7.12623 3.36424 7.87065 2.82241 8.98457 2.99108C9.68272 3.09666 10.3797 3.21073 11.073 3.34422C11.782 3.48074 12.3774 3.32298 12.8791 2.7769C13.3591 2.25448 13.8686 1.75876 14.3661 1.25272C15.188 0.416607 16.022 0.412967 16.8385 1.24301C17.336 1.74905 17.8467 2.24356 18.3255 2.76719C18.8344 3.32419 19.437 3.47892 20.1592 3.34179C20.9247 3.19617 21.6949 3.06632 22.4682 2.97106C23.3388 2.86427 24.0525 3.39336 24.2165 4.26649C24.3674 5.06984 24.4791 5.88168 24.5903 6.69231C24.6798 7.34397 24.9946 7.81603 25.5846 8.10667C26.2563 8.43735 26.9238 8.77774 27.592 9.11753C28.6218 9.64176 28.9035 10.5216 28.3742 11.5628C28.0378 12.2247 27.7049 12.8885 27.3564 13.5438C27.0464 14.1263 27.0476 14.6942 27.3564 15.2767C27.6989 15.9235 28.0245 16.5788 28.3568 17.2311C28.9065 18.3117 28.6296 19.1764 27.5607 19.7164C26.9202 20.0398 26.2828 20.3693 25.6369 20.6817C25.0138 20.9833 24.6696 21.4651 24.5849 22.1598C24.4959 22.8873 24.3764 23.6112 24.2652 24.3362C24.1144 25.3204 23.4505 25.9102 22.3919 25.8501H22.3913ZM5.91798 14.2107C5.95643 19.6448 10.3112 23.9946 15.6423 23.9831C20.9787 23.9716 25.3257 19.5058 25.295 14.1385C25.2644 8.73345 20.9607 4.34901 15.5864 4.3484C10.2295 4.3484 5.87112 8.84084 5.91738 14.2107H5.91798Z" fill="url(#paint0_linear_407_106027)"/>
<path d="M7.33008 14.1459C7.35051 9.53815 11.1237 5.71678 15.6226 5.76411C20.196 5.81204 23.8833 9.52419 23.8773 14.1762C23.8712 18.7918 20.1366 22.5379 15.6094 22.541C11.0798 22.5434 7.31025 18.7214 7.33068 14.1459H7.33008Z" fill="url(#paint1_linear_407_106027)"/>
<path d="M15.8389 19.2359C15.2423 19.2359 14.7109 19.1333 14.2448 18.9283C13.7814 18.7205 13.4152 18.4355 13.1462 18.0733C12.8798 17.7084 12.7426 17.2876 12.7347 16.8108H14.4765C14.4872 17.0106 14.5524 17.1864 14.6723 17.3382C14.7948 17.4874 14.9573 17.6032 15.1597 17.6858C15.3621 17.7683 15.5898 17.8096 15.8429 17.8096C16.1065 17.8096 16.3396 17.763 16.542 17.6698C16.7444 17.5766 16.9029 17.4474 17.0174 17.2823C17.132 17.1171 17.1892 16.9267 17.1892 16.711C17.1892 16.4926 17.128 16.2995 17.0055 16.1317C16.8856 15.9612 16.7125 15.828 16.4861 15.7322C16.2624 15.6363 15.996 15.5883 15.6871 15.5883H14.924V14.3179H15.6871C15.9481 14.3179 16.1785 14.2726 16.3782 14.182C16.5806 14.0915 16.7378 13.9663 16.8496 13.8065C16.9615 13.644 17.0174 13.4549 17.0174 13.2392C17.0174 13.0341 16.9682 12.8543 16.8696 12.6999C16.7737 12.5427 16.6379 12.4202 16.4621 12.3323C16.289 12.2444 16.0866 12.2005 15.8549 12.2005C15.6205 12.2005 15.4061 12.2431 15.2116 12.3283C15.0172 12.4109 14.8614 12.5294 14.7442 12.6839C14.627 12.8384 14.5644 13.0195 14.5564 13.2272H12.8985C12.9064 12.7558 13.0409 12.3403 13.302 11.9807C13.563 11.6212 13.9146 11.3402 14.3567 11.1378C14.8015 10.9327 15.3035 10.8301 15.8628 10.8301C16.4275 10.8301 16.9216 10.9327 17.345 11.1378C17.7685 11.3428 18.0975 11.6198 18.3318 11.9687C18.5689 12.315 18.6861 12.7038 18.6834 13.1353C18.6861 13.5934 18.5436 13.9756 18.2559 14.2819C17.9709 14.5882 17.5994 14.7826 17.1413 14.8652V14.9291C17.7432 15.0064 18.2013 15.2155 18.5156 15.5564C18.8326 15.8946 18.9897 16.3181 18.987 16.8268C18.9897 17.2929 18.8552 17.7071 18.5835 18.0693C18.3145 18.4315 17.943 18.7165 17.4689 18.9243C16.9948 19.132 16.4515 19.2359 15.8389 19.2359Z" fill="black"/>
<defs>
<linearGradient id="paint0_linear_407_106027" x1="15.6068" y1="0.623047" x2="15.6068" y2="28.1953" gradientUnits="userSpaceOnUse">
<stop stop-color="#FF7A00"/>
<stop offset="0.203125" stop-color="#E27B1B"/>
<stop offset="0.46875" stop-color="#FFBB8A"/>
<stop offset="0.6875" stop-color="#FF8A00"/>
<stop offset="1" stop-color="#FFA800"/>
</linearGradient>
<linearGradient id="paint1_linear_407_106027" x1="15.6037" y1="5.76367" x2="15.6037" y2="22.541" gradientUnits="userSpaceOnUse">
<stop stop-color="#FF7A00"/>
<stop offset="0.203125" stop-color="#E27B1B"/>
<stop offset="0.46875" stop-color="#FFBB8A"/>
<stop offset="0.6875" stop-color="#FF8A00"/>
<stop offset="1" stop-color="#FFA800"/>
</linearGradient>
</defs>
</svg>
