<svg width="23" height="23" viewBox="0 0 23 23" fill="none" xmlns="http://www.w3.org/2000/svg">
<ellipse cx="11.4913" cy="11.4238" rx="11.4913" ry="11.2953" fill="white"/>
<path d="M11.5351 10.9721C10.7767 10.9721 10.1274 10.7066 9.58733 10.1757C9.04724 9.64486 8.77719 9.00667 8.77719 8.26118C8.77719 7.51568 9.04724 6.8775 9.58733 6.34661C10.1274 5.81573 10.7767 5.55029 11.5351 5.55029C12.2935 5.55029 12.9428 5.81573 13.4829 6.34661C14.023 6.8775 14.293 7.51568 14.293 8.26118C14.293 9.00667 14.023 9.64486 13.4829 10.1757C12.9428 10.7066 12.2935 10.9721 11.5351 10.9721ZM7.26929 16.3938C6.57893 16.3938 6.01929 15.8342 6.01929 15.1438V14.4962C6.01929 14.1122 6.11995 13.7591 6.32128 13.4369C6.52261 13.1148 6.78966 12.8692 7.12245 12.7002C7.83491 12.3501 8.55886 12.0874 9.2943 11.9121C10.0297 11.7368 10.7767 11.6493 11.5351 11.6498C12.2935 11.6498 13.0405 11.7374 13.7759 11.9127C14.5113 12.088 15.2353 12.3505 15.9478 12.7002C16.281 12.8697 16.5483 13.1155 16.7496 13.4376C16.9509 13.7597 17.0514 14.1126 17.0509 14.4962V15.1438C17.0509 15.8342 16.4913 16.3938 15.8009 16.3938H7.26929Z" fill="#212329"/>
</svg>
