<svg width="12" height="13" viewBox="0 0 12 13" fill="none" xmlns="http://www.w3.org/2000/svg">
<path d="M7.79018 6.06185L7.26518 6.59852C6.84518 7.01852 6.58268 7.37435 6.58268 8.24935H5.41602V7.95768C5.41602 7.31018 5.67852 6.72685 6.09852 6.30685L6.82185 5.57185C7.03768 5.36185 7.16602 5.07018 7.16602 4.74935C7.16602 4.43993 7.0431 4.14318 6.82431 3.92439C6.60551 3.7056 6.30877 3.58268 5.99935 3.58268C5.68993 3.58268 5.39318 3.7056 5.17439 3.92439C4.9556 4.14318 4.83268 4.43993 4.83268 4.74935H3.66602C3.66602 4.13051 3.91185 3.53702 4.34943 3.09943C4.78702 2.66185 5.38051 2.41602 5.99935 2.41602C6.61819 2.41602 7.21168 2.66185 7.64927 3.09943C8.08685 3.53702 8.33268 4.13051 8.33268 4.74935C8.33184 5.24124 8.13688 5.71292 7.79018 6.06185ZM6.58268 10.5827H5.41602V9.41602H6.58268M5.99935 0.666016C5.2333 0.666016 4.47476 0.816899 3.76703 1.11005C3.0593 1.4032 2.41623 1.83288 1.87456 2.37456C0.780597 3.46852 0.166016 4.95225 0.166016 6.49935C0.166016 8.04645 0.780597 9.53018 1.87456 10.6241C2.41623 11.1658 3.0593 11.5955 3.76703 11.8886C4.47476 12.1818 5.2333 12.3327 5.99935 12.3327C7.54645 12.3327 9.03018 11.7181 10.1241 10.6241C11.2181 9.53018 11.8327 8.04645 11.8327 6.49935C11.8327 3.27352 9.20768 0.666016 5.99935 0.666016Z" fill="white"/>
</svg>
