<svg width="20" height="20" viewBox="0 0 20 20" fill="none" xmlns="http://www.w3.org/2000/svg">
<path d="M9.06557 20C8.05692 20 7.20612 19.2489 7.08101 18.2481L6.98476 17.4781C6.93258 17.0606 6.64657 16.7185 6.287 16.5C5.92857 16.2822 5.48861 16.2243 5.10194 16.3868L4.37335 16.6929C3.44532 17.0828 2.37211 16.7223 1.86777 15.8511L0.88551 14.1545C0.379757 13.2809 0.604235 12.1674 1.40894 11.558L2.30458 10.8798C2.47146 10.7534 2.55 10.5463 2.55 10.337V9.663C2.55 9.45367 2.47146 9.24659 2.30458 9.12022L1.40894 8.44197C0.604235 7.83258 0.379756 6.71906 0.885509 5.84548L1.86776 4.14886C2.37211 3.27771 3.44532 2.91715 4.37335 3.30708L5.09185 3.60897C5.48488 3.77411 5.93176 3.71481 6.3 3.5C6.65858 3.29083 6.93178 2.94579 6.98327 2.53387L7.08101 1.75193C7.20612 0.751074 8.05692 0 9.06557 0H11.0344C12.0431 0 12.8939 0.751073 13.019 1.75193L13.1152 2.52189C13.1674 2.93939 13.4534 3.28151 13.813 3.5C14.1714 3.7178 14.6114 3.77567 14.9981 3.61321L15.7267 3.30708C16.6547 2.91715 17.7279 3.27771 18.2322 4.14886L19.2145 5.84549C19.7202 6.71906 19.4958 7.83258 18.6911 8.44197L17.7954 9.12022C17.6285 9.24659 17.55 9.45367 17.55 9.663V10.337C17.55 10.5436 17.6086 10.7572 17.7733 10.8819L18.6661 11.558C19.4708 12.1674 19.6952 13.2809 19.1895 14.1545L18.2099 15.8465C17.7044 16.7196 16.6277 17.0795 15.6988 16.6859L15.0073 16.3929C14.615 16.2267 14.1681 16.2853 13.8 16.5C13.4414 16.7092 13.1682 17.0542 13.1167 17.4661L13.019 18.2481C12.8939 19.2489 12.0431 20 11.0344 20H9.06557ZM10.1 13.5C11.0667 13.5 11.8917 13.1583 12.575 12.475C13.2583 11.7917 13.6 10.9667 13.6 10C13.6 9.03333 13.2583 8.20833 12.575 7.525C11.8917 6.84167 11.0667 6.5 10.1 6.5C9.11667 6.5 8.28733 6.84167 7.612 7.525C6.93667 8.20833 6.59933 9.03333 6.6 10C6.6 10.9667 6.93733 11.7917 7.612 12.475C8.28667 13.1583 9.116 13.5 10.1 13.5Z" fill="#90919B"/>
</svg>
