<svg width="15" height="25" viewBox="0 0 15 25" fill="none" xmlns="http://www.w3.org/2000/svg">
<path opacity="0.6" d="M12.0277 1.22493L0.380205 11.8635C0.241956 11.9901 0.1438 12.1273 0.0857355 12.2751C0.0276711 12.4228 -0.000900056 12.5811 2.16016e-05 12.75C2.16016e-05 12.9189 0.0285927 13.0772 0.0857355 13.2249C0.142878 13.3727 0.241035 13.5099 0.380205 13.6365L12.0277 24.3067C12.3502 24.6022 12.7535 24.75 13.2373 24.75C13.7212 24.75 14.1359 24.5917 14.4816 24.2751C14.8272 23.9584 15 23.5891 15 23.1669C15 22.7447 14.8272 22.3753 14.4816 22.0587L4.32029 12.75L14.4816 3.44129C14.8041 3.14578 14.9654 2.78145 14.9654 2.34831C14.9654 1.91517 14.7926 1.54071 14.447 1.22493C14.1014 0.908312 13.6982 0.75 13.2373 0.75C12.7765 0.75 12.3733 0.908312 12.0277 1.22493Z" fill="white"/>
</svg>
