<svg width="16" height="25" viewBox="0 0 16 25" fill="none" xmlns="http://www.w3.org/2000/svg">
<path opacity="0.6" d="M3.72235 1.22493L15.3698 11.8635C15.508 11.9901 15.6062 12.1273 15.6643 12.2751C15.7223 12.4228 15.7509 12.5811 15.75 12.75C15.75 12.9189 15.7214 13.0772 15.6643 13.2249C15.6071 13.3727 15.509 13.5099 15.3698 13.6365L3.72235 24.3067C3.39977 24.6022 2.99654 24.75 2.51267 24.75C2.0288 24.75 1.61405 24.5917 1.26843 24.2751C0.922812 23.9584 0.75 23.5891 0.75 23.1669C0.75 22.7447 0.922812 22.3753 1.26843 22.0587L11.4297 12.75L1.26843 3.44129C0.945852 3.14578 0.784562 2.78145 0.784562 2.34831C0.784562 1.91517 0.957373 1.54071 1.30299 1.22493C1.64862 0.908312 2.05184 0.75 2.51267 0.75C2.9735 0.75 3.37672 0.908312 3.72235 1.22493Z" fill="white"/>
</svg>
