<svg width="20" height="20" viewBox="0 0 20 20" fill="none" xmlns="http://www.w3.org/2000/svg">
<path d="M6 14H11V9H6V14ZM6 7H18V2H6V7ZM13 14H18V9H13V14ZM6 16C5.45 16 4.979 15.804 4.587 15.412C4.195 15.02 3.99933 14.5493 4 14V2C4 1.45 4.196 0.979001 4.588 0.587002C4.98 0.195002 5.45067 -0.000664969 6 1.69779e-06H18C18.55 1.69779e-06 19.021 0.196002 19.413 0.588002C19.805 0.980002 20.0007 1.45067 20 2V14C20 14.55 19.804 15.021 19.412 15.413C19.02 15.805 18.5493 16.0007 18 16H6ZM2 20C1.45 20 0.979001 19.804 0.587001 19.412C0.195002 19.02 -0.000664969 18.5493 1.69779e-06 18V4H2V18H16V20H2Z" fill="white"/>
</svg>
