<svg width="16" height="15" viewBox="0 0 16 15" fill="none" xmlns="http://www.w3.org/2000/svg">
<path d="M7.85734 0.439057C7.90224 0.300861 8.09776 0.300861 8.14266 0.439058L9.81856 5.59696C9.83864 5.65877 9.89624 5.70061 9.96122 5.70061H15.3846C15.5299 5.70061 15.5903 5.88655 15.4727 5.97196L11.0852 9.15972C11.0326 9.19792 11.0106 9.26562 11.0307 9.32743L12.7066 14.4853C12.7515 14.6235 12.5933 14.7384 12.4757 14.653L8.08817 11.4653C8.03559 11.4271 7.96441 11.4271 7.91183 11.4653L3.52426 14.653C3.4067 14.7384 3.24853 14.6235 3.29343 14.4853L4.96933 9.32743C4.98942 9.26562 4.96742 9.19792 4.91484 9.15972L0.527268 5.97196C0.409711 5.88655 0.470128 5.70061 0.615436 5.70061H6.03878C6.10376 5.70061 6.16136 5.65877 6.18144 5.59696L7.85734 0.439057Z" fill="#DD4735"/>
</svg>
