<svg width="16" height="16" viewBox="0 0 16 16" fill="none" xmlns="http://www.w3.org/2000/svg">
<path opacity="0.6" d="M16 6C16 6.17681 15.9298 6.34638 15.8047 6.4714C15.6797 6.59643 15.5101 6.66667 15.3333 6.66667C15.1565 6.66667 14.987 6.59643 14.8619 6.4714C14.7369 6.34638 14.6667 6.17681 14.6667 6V2.27667L9.13917 7.805C9.01407 7.93009 8.84441 8.00037 8.6675 8.00037C8.49059 8.00037 8.32093 7.93009 8.19583 7.805C8.07074 7.67991 8.00046 7.51024 8.00046 7.33333C8.00046 7.15642 8.07074 6.98676 8.19583 6.86167L13.7233 1.33333H10C9.82319 1.33333 9.65362 1.2631 9.52859 1.13807C9.40357 1.01305 9.33333 0.843478 9.33333 0.666667C9.33333 0.489856 9.40357 0.320287 9.52859 0.195262C9.65362 0.070238 9.82319 0 10 0H15.3333C15.5101 0 15.6797 0.070238 15.8047 0.195262C15.9298 0.320287 16 0.489856 16 0.666667V6ZM12.6667 8C12.4899 8 12.3203 8.07024 12.1953 8.19526C12.0702 8.32029 12 8.48986 12 8.66667V14.6667H1.33333V4H7.33333C7.51014 4 7.67971 3.92976 7.80474 3.80474C7.92976 3.67971 8 3.51014 8 3.33333C8 3.15652 7.92976 2.98695 7.80474 2.86193C7.67971 2.7369 7.51014 2.66667 7.33333 2.66667H1.33333C0.979711 2.66667 0.640573 2.80714 0.390524 3.05719C0.140476 3.30724 0 3.64638 0 4V14.6667C0 15.0203 0.140476 15.3594 0.390524 15.6095C0.640573 15.8595 0.979711 16 1.33333 16H12C12.3536 16 12.6928 15.8595 12.9428 15.6095C13.1929 15.3594 13.3333 15.0203 13.3333 14.6667V8.66667C13.3333 8.48986 13.2631 8.32029 13.1381 8.19526C13.013 8.07024 12.8435 8 12.6667 8Z" fill="white"/>
</svg>
